<?xml version="1.0" encoding="UTF-8"?> <svg xmlns="http://www.w3.org/2000/svg" width="1409" height="262" viewBox="0 0 1409 262" fill="none"><path d="M1025.23 0C1034.35 0 1044.08 0.720097 1054.41 2.16113C1064.74 3.36199 1073.62 5.04355 1081.07 7.20508C1085.63 8.40588 1089.83 9.48661 1093.68 10.4473C1097.52 11.4079 1101.36 11.8887 1105.2 11.8887C1108.09 11.8887 1110.97 11.5281 1113.85 10.8076C1114.33 21.3752 1114.81 32.3037 1115.29 43.5918C1115.77 54.8797 1116.49 66.6479 1117.45 78.8965C1112.41 79.617 1108.21 79.8574 1104.84 79.6172C1100.04 57.5214 1091.27 41.1896 1078.54 30.6221C1065.82 19.8145 1048.88 14.4102 1027.75 14.4102C1010.94 14.4102 996.526 17.5329 984.518 23.7773C972.749 29.7817 963.142 38.0672 955.696 48.6348C948.491 59.2024 943.207 71.4518 939.845 85.3818C936.482 99.0715 934.802 113.722 934.802 129.333C934.802 152.149 938.284 172.325 945.249 189.857C952.214 207.39 962.782 221.2 976.952 231.287C991.362 241.134 1009.38 246.058 1030.99 246.058C1037.72 246.058 1045.16 245.457 1053.33 244.256C1061.49 242.815 1069.3 240.654 1076.74 237.771V192.379C1076.74 184.934 1076.38 179.169 1075.66 175.086C1075.18 170.763 1073.62 167.641 1070.98 165.72C1068.58 163.798 1064.61 162.477 1059.09 161.757C1053.81 160.796 1046.48 159.956 1037.12 159.235C1036.39 155.393 1036.39 151.55 1037.12 147.707C1042.16 147.707 1048.28 147.826 1055.49 148.066C1062.69 148.066 1069.9 148.187 1077.1 148.427H1095.48C1102.92 148.427 1111.45 148.307 1121.06 148.066C1130.9 147.826 1139.31 147.707 1146.27 147.707C1146.75 151.309 1146.75 155.032 1146.27 158.875C1136.43 160.076 1129.34 161.277 1125.02 162.478C1120.7 163.678 1118.05 166.08 1117.09 169.683C1116.13 173.285 1115.65 179.41 1115.65 188.056V199.584C1115.65 210.872 1115.89 220.359 1116.37 228.045C1117.09 235.73 1117.69 241.254 1118.17 244.616C1084.79 255.904 1053.57 261.549 1024.51 261.549C997.366 261.549 973.71 256.505 953.535 246.418C933.361 236.331 917.629 221.68 906.341 202.466C895.293 183.252 889.769 160.195 889.769 133.296C889.769 106.397 895.293 82.9801 906.341 63.0459C917.629 43.1115 933.361 27.6202 953.535 16.5723C973.95 5.52433 997.847 1.64203e-05 1025.23 0ZM87.543 0C92.3463 0 97.2699 0.240384 102.313 0.720703C107.597 1.20105 113.001 1.92116 118.525 2.88184C125.49 3.84252 130.774 4.44341 134.377 4.68359C138.22 4.92376 140.741 5.04394 141.942 5.04395H145.905C147.827 4.80378 149.388 4.56343 150.589 4.32324C151.069 14.8907 151.549 25.8185 152.029 37.1064C152.51 48.3945 153.231 60.1633 154.191 72.4121C149.388 73.1326 145.425 73.373 142.303 73.1328C136.779 52.2378 129.933 37.2272 121.768 28.1006C113.602 18.7338 101.953 14.0498 86.8223 14.0498C73.6129 14.0499 62.3247 17.6533 52.958 24.8584C43.5916 31.8234 38.9083 42.2705 38.9082 56.2002C38.9082 63.6456 40.5897 70.2505 43.9521 76.0146C47.5548 81.7788 53.4386 87.3031 61.6045 92.5869C69.7704 97.8707 81.0584 103.515 95.4688 109.52C103.394 112.882 111.32 116.605 119.246 120.688C127.412 124.77 134.857 129.694 141.582 135.458C148.307 140.982 153.711 147.826 157.794 155.992C161.877 163.918 163.918 173.405 163.918 184.453C163.918 200.785 159.836 214.715 151.67 226.243C143.504 237.531 132.696 246.177 119.246 252.182C106.037 258.186 91.3856 261.188 75.2939 261.188C75.0499 261.188 71.0867 260.948 63.4053 260.468C55.96 260.228 47.3137 259.267 37.4668 257.586C29.301 256.145 21.8557 255.184 15.1309 254.704C8.6462 253.984 4.68323 253.623 3.24219 253.623C3.00202 233.689 1.92138 209.551 0 181.211C1.92122 180.971 3.84245 180.851 5.76367 180.851H11.5283C16.0916 201.986 23.6571 218.317 34.2246 229.846C45.0324 241.374 59.2027 247.139 76.7354 247.139C92.3466 247.139 105.076 242.935 114.923 234.529C124.77 225.883 129.693 214.595 129.693 200.665C129.693 190.097 126.931 181.451 121.407 174.727C116.123 168.002 109.039 162.357 100.152 157.794C91.5061 152.99 82.2592 148.547 72.4121 144.464C60.884 139.42 49.836 134.137 39.2686 128.613C28.9411 122.849 20.4143 115.523 13.6895 106.637C6.96478 97.7504 3.60254 86.2218 3.60254 72.0518C3.60258 56.9209 7.32517 43.9513 14.7705 33.1436C22.456 22.3359 32.6636 14.1704 45.3926 8.64648C58.1217 2.88235 72.172 2.57507e-05 87.543 0ZM438.031 3.60254C438.752 7.44527 438.752 11.2881 438.031 15.1309C431.066 15.8514 425.302 16.5715 420.738 17.292C416.415 18.0125 412.693 19.5739 409.57 21.9756C406.448 24.3773 403.446 28.2203 400.564 33.5039C397.923 38.5476 394.8 45.7534 391.197 55.1201L311.58 255.784C308.698 256.745 305.335 257.466 301.492 257.946C297.89 258.427 294.768 258.667 292.126 258.667L214.31 53.3184C211.187 44.6722 208.425 37.947 206.023 33.1436C203.862 28.3403 201.46 24.7376 198.818 22.3359C196.176 19.9343 192.694 18.3729 188.371 17.6523C184.288 16.6917 178.764 15.8514 171.799 15.1309C171.078 11.2881 171.078 7.44528 171.799 3.60254C180.205 3.60254 188.971 3.72273 198.098 3.96289C207.464 4.20306 216.471 4.32324 225.117 4.32324H243.131C250.096 4.08308 256.94 3.96289 263.665 3.96289C270.63 3.72273 276.754 3.60255 282.038 3.60254C282.759 7.20514 282.759 11.0479 282.038 15.1309C269.309 16.0915 260.422 17.2924 255.379 18.7334C250.335 20.1745 247.813 23.0568 247.813 27.3799C247.813 29.061 248.174 31.2225 248.895 33.8643C249.855 36.266 250.936 39.1483 252.137 42.5107L313.741 207.51L373.905 48.9951C375.586 44.432 376.907 40.589 377.868 37.4668C378.829 34.1045 379.309 31.3422 379.309 29.1807C379.308 24.3774 376.787 21.1353 371.743 19.4541C366.94 17.5327 357.813 16.0916 344.363 15.1309C343.643 11.0479 343.643 7.20511 344.363 3.60254C347.966 3.60254 353.25 3.72272 360.215 3.96289C367.18 3.96289 374.145 4.08307 381.11 4.32324H396.962C404.647 4.32324 411.492 4.20305 417.496 3.96289C423.741 3.72272 430.586 3.60254 438.031 3.60254ZM597.311 207.149C600.673 215.796 603.435 222.641 605.597 227.685C607.758 232.488 610.16 235.97 612.802 238.132C615.444 240.293 618.807 241.855 622.89 242.815C626.973 243.536 632.616 244.256 639.821 244.977C640.302 248.819 640.302 252.662 639.821 256.505C631.415 256.505 622.769 256.385 613.883 256.145C604.996 255.904 596.11 255.784 587.224 255.784C578.097 255.784 568.85 255.904 559.483 256.145C550.357 256.385 541.23 256.505 532.104 256.505C531.383 252.902 531.383 249.059 532.104 244.977C543.872 243.776 552.038 242.695 556.602 241.734C561.165 240.534 563.446 237.651 563.446 233.088C563.446 231.167 563.087 229.005 562.366 226.604C561.646 224.202 560.684 221.199 559.483 217.597L538.949 162.117H457.891L439.877 211.833C438.196 216.396 436.875 220.239 435.914 223.361C435.194 226.243 434.834 228.885 434.834 231.287C434.834 236.571 437.236 239.933 442.039 241.374C447.083 242.575 455.249 243.776 466.537 244.977C467.017 249.059 467.017 252.902 466.537 256.505C458.371 256.505 450.325 256.385 442.399 256.145C434.474 255.904 426.428 255.784 418.262 255.784C411.537 255.784 405.052 255.904 398.808 256.145C392.563 256.385 385.838 256.505 378.633 256.505C378.152 252.662 378.152 248.819 378.633 244.977C385.358 244.256 390.762 243.416 394.845 242.455C398.928 241.494 402.41 239.813 405.292 237.411C408.174 234.769 410.936 230.926 413.578 225.883C416.22 220.599 419.343 213.274 422.945 203.907L500.762 4.32324C503.404 3.36263 506.526 2.64147 510.128 2.16113C513.971 1.68079 517.214 1.44141 519.855 1.44141L597.311 207.149ZM752.118 3.24219C767.249 3.24219 781.3 5.28425 794.27 9.36719C807.479 13.4501 818.046 20.1745 825.972 29.541C834.138 38.6676 838.221 51.0372 838.221 66.6484C838.221 82.0194 833.538 95.7092 824.171 107.718C815.044 119.726 800.513 128.733 780.579 134.737V135.818C784.182 138.7 788.265 143.504 792.828 150.229L830.655 204.988C836.9 213.875 842.064 220.839 846.146 225.883C850.47 230.926 854.553 234.769 858.396 237.411C862.238 239.813 866.681 241.494 871.725 242.455C876.768 243.416 883.133 244.256 890.818 244.977C891.539 248.819 891.539 252.662 890.818 256.505C886.255 256.505 880.611 256.385 873.887 256.145H854.433C848.188 255.904 843.145 255.784 839.302 255.784C835.459 255.784 832.096 255.904 829.214 256.145H819.127L752.479 157.794C748.396 151.55 744.793 147.586 741.671 145.905C738.549 143.984 734.226 142.783 728.702 142.303L719.335 141.222V211.473C719.335 218.918 719.575 224.802 720.056 229.125C720.536 233.448 721.737 236.571 723.658 238.492C725.82 240.414 729.182 241.855 733.745 242.815C738.549 243.536 745.154 244.256 753.56 244.977C754.28 248.819 754.28 252.662 753.56 256.505C748.756 256.505 742.992 256.385 736.268 256.145H716.093C709.368 255.904 703.723 255.784 699.16 255.784C694.837 255.784 689.193 255.904 682.229 256.145H661.333C654.368 256.385 648.484 256.505 643.681 256.505C642.96 252.902 642.96 249.059 643.681 244.977C655.209 244.016 663.494 243.055 668.538 242.095C673.582 240.894 676.704 238.492 677.905 234.89C679.106 231.047 679.706 224.802 679.706 216.156V48.2744C679.706 38.4276 678.986 31.3426 677.545 27.0195C676.344 22.6964 673.221 19.8141 668.178 18.373C663.134 16.9321 654.968 15.8514 643.681 15.1309C642.96 11.5283 642.96 7.68549 643.681 3.60254C648.244 3.60254 654.128 3.72273 661.333 3.96289C668.778 3.96289 675.983 4.08308 682.948 4.32324H715.372C722.337 4.08307 729.182 3.84271 735.907 3.60254C742.872 3.36238 748.275 3.2422 752.118 3.24219ZM1364.62 207.149C1367.98 215.796 1370.75 222.641 1372.91 227.685C1375.07 232.488 1377.47 235.97 1380.11 238.132C1382.76 240.293 1386.12 241.855 1390.2 242.815C1394.28 243.536 1399.93 244.256 1407.13 244.977C1407.61 248.819 1407.61 252.662 1407.13 256.505C1398.73 256.505 1390.08 256.385 1381.19 256.145C1372.31 255.904 1363.42 255.784 1354.54 255.784C1345.41 255.784 1336.16 255.904 1326.79 256.145C1317.67 256.385 1308.54 256.505 1299.42 256.505C1298.69 252.902 1298.69 249.059 1299.42 244.977C1311.18 243.776 1319.35 242.695 1323.91 241.734C1328.48 240.534 1330.76 237.651 1330.76 233.088C1330.76 231.167 1330.4 229.005 1329.68 226.604C1328.96 224.202 1328 221.199 1326.79 217.597L1306.26 162.117H1225.2L1207.19 211.833C1205.51 216.396 1204.19 220.239 1203.23 223.361C1202.51 226.243 1202.15 228.885 1202.15 231.287C1202.15 236.571 1204.55 239.933 1209.35 241.374C1214.39 242.575 1222.56 243.776 1233.85 244.977C1234.33 249.059 1234.33 252.902 1233.85 256.505C1225.68 256.505 1217.64 256.385 1209.71 256.145C1201.79 255.904 1193.74 255.784 1185.57 255.784C1178.85 255.784 1172.36 255.904 1166.12 256.145C1159.87 256.385 1153.15 256.505 1145.94 256.505C1145.46 252.662 1145.46 248.819 1145.94 244.977C1152.67 244.256 1158.07 243.416 1162.16 242.455C1166.24 241.494 1169.72 239.813 1172.6 237.411C1175.49 234.769 1178.25 230.926 1180.89 225.883C1183.53 220.599 1186.65 213.274 1190.26 203.907L1268.07 4.32324C1270.72 3.36263 1273.84 2.64147 1277.44 2.16113C1281.28 1.68079 1284.53 1.44141 1287.17 1.44141L1364.62 207.149ZM463.294 146.986H533.545L498.239 51.1572L463.294 146.986ZM1230.61 146.986H1300.86L1265.55 51.1572L1230.61 146.986ZM739.149 18.0127C736.748 18.0127 733.745 18.1329 730.143 18.373C726.78 18.6132 723.178 18.9738 719.335 19.4541V126.451C722.457 126.932 725.219 127.292 727.621 127.532C730.023 127.772 732.304 127.893 734.466 127.893C753.199 127.893 767.971 123.088 778.778 113.481C789.826 103.875 795.35 89.7047 795.35 70.9717C795.35 53.9194 790.546 40.8297 780.939 31.7031C771.573 22.5766 757.643 18.0127 739.149 18.0127Z" fill="url(#paint0_linear_98_5674)"></path><mask id="mask0_98_5674" style="mask-type:alpha" maskUnits="userSpaceOnUse" x="0" y="0" width="1409" height="262"><path d="M1146.57 256.649C1146.09 252.807 1146.09 248.964 1146.57 245.121C1153.3 244.4 1158.7 243.56 1162.78 242.599C1166.86 241.638 1170.35 239.957 1173.23 237.556C1176.11 234.914 1178.87 231.071 1181.52 226.027C1184.16 220.743 1187.28 213.418 1190.88 204.051L1268.7 4.46733C1271.34 3.50665 1274.46 2.78613 1278.07 2.30578C1281.91 1.82544 1285.15 1.58527 1287.79 1.58527L1365.25 207.294C1368.61 215.94 1371.37 222.785 1373.53 227.829C1375.7 232.632 1378.1 236.115 1380.74 238.276C1383.38 240.438 1386.74 241.999 1390.83 242.959C1394.91 243.68 1400.55 244.4 1407.76 245.121C1408.24 248.964 1408.24 252.807 1407.76 256.649C1399.35 256.649 1390.71 256.529 1381.82 256.289C1372.93 256.049 1364.05 255.929 1355.16 255.929C1346.03 255.929 1336.79 256.049 1327.42 256.289C1318.29 256.529 1309.17 256.649 1300.04 256.649C1299.32 253.047 1299.32 249.204 1300.04 245.121C1311.81 243.92 1319.98 242.839 1324.54 241.879C1329.1 240.678 1331.38 237.796 1331.38 233.232C1331.38 231.311 1331.02 229.149 1330.3 226.748C1329.58 224.346 1328.62 221.344 1327.42 217.741L1306.89 162.261H1225.83L1207.81 211.977C1206.13 216.54 1204.81 220.383 1203.85 223.505C1203.13 226.387 1202.77 229.029 1202.77 231.431C1202.77 236.715 1205.17 240.077 1209.98 241.518C1215.02 242.719 1223.19 243.92 1234.47 245.121C1234.95 249.204 1234.95 253.047 1234.47 256.649C1226.31 256.649 1218.26 256.529 1210.34 256.289C1202.41 256.049 1194.36 255.929 1186.2 255.929C1179.47 255.929 1172.99 256.049 1166.74 256.289C1160.5 256.529 1153.78 256.649 1146.57 256.649ZM1231.23 147.13H1301.48L1266.18 51.3011L1231.23 147.13Z" fill="url(#paint1_linear_98_5674)"></path><path d="M1025.13 261.694C997.991 261.694 974.334 256.65 954.16 246.563C933.985 236.475 918.254 221.825 906.965 202.611C895.918 183.397 890.394 160.34 890.394 133.441C890.394 106.542 895.918 83.1247 906.965 63.1903C918.254 43.256 933.985 27.7648 954.16 16.7168C974.574 5.66882 998.472 0.144836 1025.85 0.144836C1034.98 0.144836 1044.7 0.865361 1055.03 2.3064C1065.36 3.50726 1074.25 5.18847 1081.69 7.35003C1086.25 8.55089 1090.46 9.63168 1094.3 10.5924C1098.14 11.5531 1101.99 12.0334 1105.83 12.0334C1108.71 12.0334 1111.59 11.6732 1114.48 10.9526C1114.96 21.5203 1115.44 32.4481 1115.92 43.7363C1116.4 55.0244 1117.12 66.7929 1118.08 79.0418C1113.03 79.7623 1108.83 80.0025 1105.47 79.7623C1100.67 57.6664 1091.9 41.3346 1079.17 30.7669C1066.44 19.9591 1049.51 14.5552 1028.37 14.5552C1011.56 14.5552 997.151 17.6775 985.142 23.922C973.373 29.9263 963.766 38.2123 956.321 48.7799C949.116 59.3476 943.832 71.5964 940.47 85.5264C937.107 99.2163 935.426 113.867 935.426 129.478C935.426 152.295 938.909 172.469 945.874 190.002C952.839 207.534 963.406 221.344 977.576 231.432C991.987 241.279 1010 246.202 1031.62 246.202C1038.34 246.202 1045.79 245.602 1053.95 244.401C1062.12 242.96 1069.92 240.798 1077.37 237.916V192.524C1077.37 185.078 1077.01 179.314 1076.29 175.231C1075.81 170.908 1074.25 167.786 1071.6 165.864C1069.2 163.943 1065.24 162.622 1059.72 161.902C1054.43 160.941 1047.11 160.1 1037.74 159.38C1037.02 155.537 1037.02 151.694 1037.74 147.851C1042.78 147.851 1048.91 147.972 1056.11 148.212C1063.32 148.212 1070.52 148.332 1077.73 148.572C1085.17 148.572 1091.3 148.572 1096.1 148.572C1103.55 148.572 1112.07 148.452 1121.68 148.212C1131.53 147.972 1139.93 147.851 1146.9 147.851C1147.38 151.454 1147.38 155.177 1146.9 159.019C1137.05 160.22 1129.97 161.421 1125.64 162.622C1121.32 163.823 1118.68 166.225 1117.72 169.827C1116.76 173.43 1116.28 179.554 1116.28 188.201V199.729C1116.28 211.017 1116.52 220.504 1117 228.189C1117.72 235.875 1118.32 241.399 1118.8 244.761C1085.41 256.049 1054.19 261.694 1025.13 261.694Z" fill="url(#paint2_linear_98_5674)"></path><path d="M729.326 142.447L719.96 141.367V211.617C719.96 219.063 720.2 224.947 720.68 229.27C721.16 233.593 722.361 236.715 724.283 238.637C726.444 240.558 729.807 241.999 734.37 242.96C739.173 243.68 745.778 244.401 754.184 245.121C754.905 248.964 754.905 252.807 754.184 256.65C749.381 256.65 743.617 256.53 736.892 256.29C730.167 256.29 723.442 256.29 716.717 256.29C709.992 256.049 704.348 255.929 699.785 255.929C695.462 255.929 689.818 256.049 682.853 256.29C675.888 256.29 668.923 256.29 661.958 256.29C654.993 256.53 649.108 256.65 644.305 256.65C643.584 253.047 643.584 249.204 644.305 245.121C655.833 244.161 664.119 243.2 669.163 242.239C674.207 241.039 677.329 238.637 678.53 235.034C679.731 231.191 680.331 224.947 680.331 216.301V48.4195C680.331 38.5724 679.61 31.4873 678.169 27.1642C676.969 22.841 673.846 19.959 668.803 18.5179C663.759 17.0769 655.593 15.9961 644.305 15.2756C643.584 11.673 643.584 7.83023 644.305 3.74728C648.868 3.74728 654.753 3.86736 661.958 4.10753C669.403 4.10753 676.608 4.22762 683.573 4.46779C690.779 4.46779 696.062 4.46779 699.425 4.46779C703.748 4.46779 709.272 4.46779 715.997 4.46779C722.962 4.22762 729.807 3.98745 736.532 3.74728C743.497 3.50711 748.9 3.38702 752.743 3.38702C767.874 3.38702 781.924 5.42849 794.894 9.51143C808.103 13.5944 818.671 20.3192 826.597 29.686C834.762 38.8126 838.845 51.1815 838.845 66.7928C838.845 82.1639 834.162 95.8537 824.795 107.862C815.669 119.871 801.138 128.878 781.204 134.882V135.963C784.806 138.845 788.889 143.648 793.453 150.373L831.28 205.133C837.524 214.019 842.688 220.984 846.771 226.028C851.094 231.071 855.177 234.914 859.02 237.556C862.863 239.958 867.306 241.639 872.35 242.6C877.393 243.56 883.758 244.401 891.443 245.121C892.164 248.964 892.164 252.807 891.443 256.65C886.88 256.65 881.236 256.53 874.511 256.29C867.786 256.29 861.302 256.29 855.057 256.29C848.813 256.049 843.769 255.929 839.926 255.929C836.083 255.929 832.721 256.049 829.839 256.29C826.957 256.29 823.594 256.29 819.752 256.29L753.104 157.939C749.021 151.694 745.418 147.731 742.296 146.05C739.173 144.129 734.85 142.928 729.326 142.447ZM719.96 126.596C723.082 127.076 725.844 127.437 728.246 127.677C730.647 127.917 732.929 128.037 735.091 128.037C753.824 128.037 768.595 123.234 779.402 113.627C790.45 104.02 795.974 89.8494 795.974 71.1159C795.974 54.0636 791.171 40.9741 781.564 31.8476C772.197 22.721 758.267 18.1577 739.774 18.1577C737.372 18.1577 734.37 18.2778 730.767 18.5179C727.405 18.7581 723.802 19.1184 719.96 19.5987V126.596Z" fill="url(#paint3_linear_98_5674)"></path><path d="M379.258 256.649C378.777 252.807 378.777 248.964 379.258 245.121C385.983 244.4 391.386 243.56 395.469 242.599C399.552 241.638 403.035 239.957 405.917 237.556C408.799 234.914 411.561 231.071 414.203 226.027C416.845 220.743 419.967 213.418 423.57 204.051L501.386 4.46733C504.028 3.50665 507.15 2.78613 510.753 2.30578C514.595 1.82544 517.838 1.58527 520.48 1.58527L597.935 207.294C601.298 215.94 604.06 222.785 606.221 227.829C608.383 232.632 610.785 236.115 613.427 238.276C616.069 240.438 619.431 241.999 623.514 242.959C627.597 243.68 633.241 244.4 640.446 245.121C640.927 248.964 640.927 252.807 640.446 256.649C632.04 256.649 623.394 256.529 614.507 256.289C605.621 256.049 596.735 255.929 587.848 255.929C578.722 255.929 569.475 256.049 560.108 256.289C550.982 256.529 541.855 256.649 532.728 256.649C532.008 253.047 532.008 249.204 532.728 245.121C544.497 243.92 552.663 242.839 557.226 241.879C561.789 240.678 564.071 237.796 564.071 233.232C564.071 231.311 563.711 229.149 562.99 226.748C562.27 224.346 561.309 221.344 560.108 217.741L539.573 162.261H458.515L440.502 211.977C438.821 216.54 437.5 220.383 436.539 223.505C435.819 226.387 435.458 229.029 435.458 231.431C435.458 236.715 437.86 240.077 442.663 241.518C447.707 242.719 455.873 243.92 467.161 245.121C467.641 249.204 467.641 253.047 467.161 256.649C458.995 256.649 450.949 256.529 443.024 256.289C435.098 256.049 427.052 255.929 418.886 255.929C412.161 255.929 405.677 256.049 399.432 256.289C393.188 256.529 386.463 256.649 379.258 256.649ZM463.919 147.13H534.169L498.864 51.3011L463.919 147.13Z" fill="url(#paint4_linear_98_5674)"></path><path d="M292.751 258.811L214.935 53.4633C211.813 44.817 209.051 38.0922 206.649 33.2887C204.487 28.4852 202.086 24.8826 199.444 22.4809C196.802 20.0792 193.319 18.518 188.996 17.7975C184.913 16.8368 179.389 15.9962 172.424 15.2757C171.704 11.4329 171.704 7.59014 172.424 3.74738C180.83 3.74738 189.597 3.86746 198.723 4.10763C208.09 4.3478 217.096 4.46789 225.743 4.46789C231.026 4.46789 237.031 4.46789 243.756 4.46789C250.721 4.22772 257.566 4.10763 264.29 4.10763C271.255 3.86746 277.38 3.74738 282.664 3.74738C283.384 7.34997 283.384 11.1927 282.664 15.2757C269.935 16.2364 261.048 17.4373 256.004 18.8783C250.961 20.3193 248.439 23.2014 248.439 27.5245C248.439 29.2057 248.799 31.3673 249.52 34.0092C250.48 36.4109 251.561 39.293 252.762 42.6554L314.367 207.655L374.53 49.1401C376.211 44.5768 377.532 40.7341 378.493 37.6118C379.454 34.2494 379.934 31.4874 379.934 29.3258C379.934 24.5224 377.412 21.28 372.368 19.5988C367.565 17.6774 358.438 16.2364 344.989 15.2757C344.268 11.1927 344.268 7.34997 344.989 3.74738C348.591 3.74738 353.875 3.86746 360.84 4.10763C367.805 4.10763 374.77 4.22772 381.735 4.46789C388.7 4.46789 393.984 4.46789 397.587 4.46789C405.272 4.46789 412.117 4.3478 418.121 4.10763C424.366 3.86746 431.211 3.74738 438.656 3.74738C439.377 7.59014 439.377 11.4329 438.656 15.2757C431.691 15.9962 425.927 16.7167 421.364 17.4372C417.041 18.1578 413.318 19.7189 410.196 22.1206C407.073 24.5224 404.071 28.3651 401.189 33.649C398.547 38.6926 395.425 45.8978 391.822 55.2646L312.205 255.929C309.323 256.89 305.961 257.611 302.118 258.091C298.515 258.571 295.393 258.811 292.751 258.811Z" fill="url(#paint5_linear_98_5674)"></path><path d="M75.9203 261.333C75.6801 261.333 71.7172 261.093 64.0317 260.613C56.5863 260.373 47.9401 259.412 38.093 257.731C29.9271 256.29 22.4817 255.329 15.7569 254.849C9.27219 254.128 5.30933 253.768 3.86829 253.768C3.62811 233.833 2.54733 209.696 0.625946 181.356C2.54733 181.115 4.46872 180.995 6.3901 180.995C8.55166 180.995 10.4731 180.995 12.1543 180.995C16.7176 202.131 24.283 218.462 34.8506 229.991C45.6584 241.519 59.8287 247.283 77.3613 247.283C92.9726 247.283 105.702 243.08 115.549 234.674C125.396 226.028 130.32 214.74 130.32 200.81C130.32 190.242 127.558 181.596 122.034 174.871C116.75 168.146 109.665 162.502 100.778 157.939C92.132 153.135 82.8853 148.692 73.0382 144.609C61.5099 139.565 50.4619 134.282 39.8943 128.758C29.5668 122.993 21.0407 115.668 14.3158 106.782C7.59097 97.8954 4.22855 86.3671 4.22855 72.1968C4.22855 57.0659 7.95123 44.0966 15.3966 33.2888C23.0821 22.481 33.2895 14.3151 46.0187 8.79108C58.7479 3.02692 72.798 0.144836 88.1691 0.144836C92.9726 0.144836 97.8961 0.385008 102.94 0.865349C108.224 1.3457 113.627 2.06623 119.151 3.02692C126.117 3.98761 131.4 4.58804 135.003 4.82822C138.846 5.06839 141.368 5.18848 142.568 5.18848C143.289 5.18848 144.61 5.18848 146.531 5.18848C148.453 4.94831 150.014 4.70813 151.215 4.46795C151.695 15.0356 152.175 25.9635 152.656 37.2516C153.136 48.5398 153.857 60.3082 154.817 72.5571C150.014 73.2776 146.051 73.5178 142.929 73.2776C137.405 52.3825 130.56 37.3717 122.394 28.2451C114.228 18.8783 102.58 14.195 87.4486 14.195C74.2391 14.195 62.9509 17.7976 53.5842 25.0028C44.2174 31.9678 39.534 42.4153 39.534 56.3454C39.534 63.7908 41.2152 70.3955 44.5777 76.1597C48.1803 81.9239 54.0645 87.4478 62.2304 92.7316C70.3963 98.0155 81.6844 103.66 96.0948 109.664C104.021 113.026 111.946 116.749 119.872 120.832C128.038 124.915 135.483 129.838 142.208 135.603C148.933 141.127 154.337 147.971 158.42 156.137C162.503 164.063 164.544 173.55 164.544 184.598C164.544 200.93 160.461 214.86 152.295 226.388C144.13 237.676 133.322 246.322 119.872 252.327C106.662 258.331 92.0119 261.333 75.9203 261.333Z" fill="url(#paint6_linear_98_5674)"></path></mask><g mask="url(#mask0_98_5674)"><rect x="-153.749" y="-154.711" width="1672" height="546" fill="url(#paint7_linear_98_5674)"></rect></g><defs><linearGradient id="paint0_linear_98_5674" x1="51.6259" y1="91.6448" x2="1366.13" y2="299.145" gradientUnits="userSpaceOnUse"><stop stop-color="#FFFBEB"></stop><stop offset="0.485577" stop-color="#FFFAE6"></stop><stop offset="1" stop-color="#FFFBEB"></stop></linearGradient><linearGradient id="paint1_linear_98_5674" x1="52.2516" y1="91.7891" x2="1366.75" y2="299.289" gradientUnits="userSpaceOnUse"><stop stop-color="#FFFBEB"></stop><stop offset="0.485577" stop-color="#FFFAE6"></stop><stop offset="1" stop-color="#FFFBEB"></stop></linearGradient><linearGradient id="paint2_linear_98_5674" x1="52.2506" y1="91.7897" x2="1366.75" y2="299.29" gradientUnits="userSpaceOnUse"><stop stop-color="#FFFBEB"></stop><stop offset="0.485577" stop-color="#FFFAE6"></stop><stop offset="1" stop-color="#FFFBEB"></stop></linearGradient><linearGradient id="paint3_linear_98_5674" x1="52.2506" y1="91.7895" x2="1366.75" y2="299.289" gradientUnits="userSpaceOnUse"><stop stop-color="#FFFBEB"></stop><stop offset="0.485577" stop-color="#FFFAE6"></stop><stop offset="1" stop-color="#FFFBEB"></stop></linearGradient><linearGradient id="paint4_linear_98_5674" x1="52.2505" y1="91.789" x2="1366.75" y2="299.289" gradientUnits="userSpaceOnUse"><stop stop-color="#FFFBEB"></stop><stop offset="0.485577" stop-color="#FFFAE6"></stop><stop offset="1" stop-color="#FFFBEB"></stop></linearGradient><linearGradient id="paint5_linear_98_5674" x1="52.2511" y1="91.7896" x2="1366.75" y2="299.29" gradientUnits="userSpaceOnUse"><stop stop-color="#FFFBEB"></stop><stop offset="0.485577" stop-color="#FFFAE6"></stop><stop offset="1" stop-color="#FFFBEB"></stop></linearGradient><linearGradient id="paint6_linear_98_5674" x1="52.2519" y1="91.7897" x2="1366.75" y2="299.29" gradientUnits="userSpaceOnUse"><stop stop-color="#FFFBEB"></stop><stop offset="0.485577" stop-color="#FFFAE6"></stop><stop offset="1" stop-color="#FFFBEB"></stop></linearGradient><linearGradient id="paint7_linear_98_5674" x1="1059.63" y1="233.145" x2="393.626" y2="27.1448" gradientUnits="userSpaceOnUse"><stop stop-color="white" stop-opacity="0"></stop><stop offset="0.502671" stop-color="white"></stop><stop offset="1" stop-color="white" stop-opacity="0"></stop></linearGradient></defs></svg> 