<?xml version="1.0" encoding="UTF-8"?> <svg xmlns="http://www.w3.org/2000/svg" width="326" height="75" viewBox="0 0 326 75" fill="none"><path d="M24.3906 13.4151C25.9538 14.9632 27.4321 16.6169 28.7502 18.3857C32.3066 13.8469 36.8491 8.46902 43.0718 8.00892C60.6461 6.7097 62.4582 32.2434 46.828 34.9587C38.6575 36.3786 32.8873 29.6864 28.8577 23.5977L28.4692 23.4807C25.4409 27.7404 21.5809 33.3955 16.1748 34.6646C0.0372954 38.4547 -6.17972 15.248 7.5969 9.1158C14.0666 6.2364 19.7462 8.81221 24.3906 13.4151ZM35.5593 14.9236C34.8088 15.6666 30.4152 20.4995 30.4134 21.1218C34.6146 26.7637 39.2703 34.2629 47.5125 31.8719C57.3368 29.0227 56.9747 13.9073 47.2825 11.1693C42.5683 9.83801 38.829 11.6841 35.5612 14.9236H35.5593ZM20.8059 28.6437C21.8053 27.6801 22.75 26.6279 23.642 25.538C24.1002 24.978 26.9664 21.2368 26.9551 20.9294C22.8915 15.4045 17.6871 8.89329 9.88609 11.2164C1.44588 13.73 0.127807 26.2941 7.66667 30.7971C12.5977 33.7425 16.9498 32.3603 20.8059 28.6437Z" fill="#457464"></path><path d="M12.7485 18.4557C12.905 18.6103 13.614 19.8209 13.7573 19.7078C14.6436 16.834 18.7977 16.6304 19.9328 19.4758C21.5753 23.5903 16.1728 26.6413 13.6385 28.9324C11.7038 27.307 7.24614 24.3371 6.97272 21.6896C6.6201 18.2766 10.2217 15.9553 12.7504 18.4557H12.7485Z" fill="#457464"></path><path d="M36.3079 20.0075C42.1836 14.3487 48.4987 15.9967 52.9602 22.2288C49.5848 26.6978 44.5011 29.6338 39.0365 26.5809C38.0503 26.0303 35.0106 23.298 34.592 22.342C34.3148 21.7084 35.8346 20.4658 36.3079 20.0094V20.0075ZM38.7291 24.1541C43.0812 27.586 47.3315 26.1812 50.5145 22.0912C49.1568 20.5789 47.1222 18.8856 45.1026 18.4406C41.6689 17.6844 38.9139 19.8454 36.768 22.2534C37.4242 22.8662 38.0295 23.6016 38.7291 24.1541Z" fill="#457464"></path><path d="M43.6696 24.9722C45.2317 24.9722 46.4981 23.7059 46.4981 22.1437C46.4981 20.5816 45.2317 19.3152 43.6696 19.3152C42.1075 19.3152 40.8411 20.5816 40.8411 22.1437C40.8411 23.7059 42.1075 24.9722 43.6696 24.9722Z" fill="#457464"></path><path d="M49.9563 47.4044C48.6457 47.4044 45.6928 49.1562 44.7632 50.1311C44.188 50.7345 43.924 51.5906 43.2641 52.1186C43.8882 50.7383 44.5086 49.375 44.7518 47.857C45.2063 45.0134 44.5803 42.0775 45.3364 39.298C42.3457 39.3753 39.1571 40.2031 37.0357 42.4037L35.7214 44.3874C35.5612 39.3678 32.0067 35.7586 28.8369 32.323C25.5332 35.6172 22.2993 39.364 21.7638 44.1988L19.8819 41.8418C17.7323 40.0843 14.8943 39.3565 12.1488 39.2999C12.9955 41.1101 12.4864 42.8374 12.5184 44.6816C12.5561 46.9406 13.086 49.2505 13.844 51.3662C12.3412 49.4372 9.82758 47.6873 7.3404 47.4063C6.36363 47.297 5.22658 47.4855 4.22906 47.4063C6.53334 49.7728 6.76339 53.0218 8.34546 55.8296C10.7233 60.0515 14.5474 61.7128 19.3143 61.7392C19.2295 62.0692 18.5582 61.9033 18.181 62.0183C16.3595 62.5746 14.8227 64.3961 14.4135 66.2629C17.736 65.6218 20.3571 67.5414 23.7362 66.6306C25.6973 66.1007 27.5999 64.7827 28.6521 63.0573C28.8916 63.0554 30.0494 64.5281 30.4397 64.8524C31.3486 65.6086 33.1947 66.559 34.3524 66.7852C37.2978 67.3585 40.313 65.6161 43.2641 66.4515C42.8266 64.5092 41.5764 62.9573 39.7869 62.105L37.9861 61.7392C41.6367 61.6845 45.3402 60.9548 47.7859 58.0546C49.7338 55.7447 50.6841 52.8295 51.6138 50.0029L53.2599 47.4063H49.96L49.9563 47.4044ZM29.5893 40.4897C29.7797 40.501 30.8923 41.4326 31.0148 41.6438C31.8313 43.0467 29.4686 44.8135 28.1731 43.3559C27.2001 42.2623 28.62 41.0083 29.5912 40.4897H29.5893ZM27.8092 44.4741C29.0349 44.8569 30.0494 44.872 31.2487 44.3497C31.788 44.114 32.3574 43.3597 32.761 43.4634L33.9791 45.4339C31.358 47.4478 26.0518 47.5553 25.7237 43.4464C26.4742 43.718 27.0022 44.2215 27.8054 44.4741H27.8092ZM33.7226 59.8347C31.2204 60.1383 29.1122 57.3004 30.3492 55.1375C30.6603 54.9848 30.8489 55.7881 31.0733 56.0125C34.1318 59.088 37.2507 53.8873 35.4235 50.8118C34.7371 49.6559 33.3078 49.1487 32.4272 50.4272C32.0237 51.0136 31.9124 51.9658 31.5447 52.5617C30.8074 53.7516 29.2895 54.008 27.9902 54.0061L28.8972 55.0772C31.1902 61.7675 22.7443 62.8423 19.7989 57.7642C19.2502 56.8158 18.4677 54.0778 18.8901 53.1067C19.0051 52.8408 18.9334 52.8219 19.3124 52.8729C19.567 56.2274 22.4483 59.3425 25.9594 57.9151C27.6697 57.2193 27.9035 55.0244 26.1762 54.2136C25.5464 53.9175 24.2717 53.8911 24.0228 53.7289C23.7965 53.5819 23.1422 51.7792 23.7758 51.5812C24.5357 51.3417 26.3478 51.7132 26.4723 50.3121C26.708 47.6703 22.9555 48.7376 21.8618 50.0387C21.151 49.4127 20.4947 48.7376 20.4665 47.7175C24.7601 43.5841 31.2581 48.1719 26.4817 52.871C30.2813 53.4348 28.8294 48.2756 32.2763 47.6364C39.0044 46.3918 39.9623 59.0785 33.7226 59.8347Z" fill="#457464"></path><path d="M90.3659 34.2545L99.8628 9.93528C100.484 9.96486 101.135 9.97966 101.815 9.97966C102.496 9.97966 103.073 9.97966 103.546 9.97966C103.783 9.97966 104.212 9.97966 104.833 9.97966C105.484 9.95007 106.179 9.93528 106.919 9.93528C107.688 9.93528 108.383 9.93528 109.005 9.93528C109.656 9.90569 110.099 9.8909 110.336 9.8909C110.425 10.3347 110.425 10.7933 110.336 11.2666H110.247C108.886 11.4146 107.895 11.5625 107.274 11.7104C106.653 11.8287 106.268 12.1246 106.12 12.598C106.002 13.0418 105.943 13.7814 105.943 14.8169L106.298 35.5415C106.298 36.4586 106.327 37.1835 106.386 37.716C106.446 38.2486 106.608 38.6332 106.875 38.8698C107.141 39.1065 107.57 39.284 108.162 39.4024C108.753 39.4911 109.596 39.5799 110.691 39.6687C110.78 40.1124 110.78 40.571 110.691 41.0444C110.454 41.0444 110.011 41.0296 109.36 41C108.738 41 108.043 41 107.274 41C106.534 41 105.839 41 105.188 41C104.567 40.9704 104.138 40.9556 103.901 40.9556C103.665 40.9556 103.236 40.9704 102.614 41C101.993 41 101.313 41 100.573 41C99.8333 41 99.1528 41 98.5315 41C97.9102 41.0296 97.4812 41.0444 97.2445 41.0444C97.2149 40.6006 97.2149 40.142 97.2445 39.6687H97.3333C98.635 39.5207 99.5818 39.3876 100.173 39.2693C100.765 39.1213 101.12 38.8255 101.239 38.3817C101.386 37.9083 101.46 37.1539 101.46 36.1184L101.061 12.3317L89.8778 40.9556C89.6707 41.0444 89.3452 41.1035 88.9014 41.1331C88.4576 41.1627 88.073 41.1775 87.7476 41.1775L77.23 13.2636L76.5199 36.1184C76.4903 37.0947 76.5347 37.8048 76.6531 38.2486C76.7714 38.6627 77.1264 38.9586 77.7181 39.1361C78.3098 39.3136 79.301 39.4911 80.6915 39.6687C80.8098 40.142 80.8098 40.6006 80.6915 41.0444C80.3956 41.0444 79.8779 41.0296 79.1382 41C78.4282 41 77.7033 41 76.9637 41C76.2537 40.9704 75.7359 40.9556 75.4105 40.9556C75.233 40.9556 74.8779 40.9704 74.3454 41C73.8424 41 73.2803 41 72.659 41C72.0377 41 71.4608 41 70.9283 41C70.4253 41.0296 70.0851 41.0444 69.9076 41.0444C69.8484 40.571 69.8484 40.1124 69.9076 39.6687C71.2981 39.4911 72.2892 39.3136 72.8809 39.1361C73.4726 38.9586 73.8424 38.6036 73.9904 38.071C74.1679 37.5385 74.2714 36.6953 74.301 35.5415L75.1442 14.8169C75.2034 13.7814 75.159 13.0418 75.0111 12.598C74.8631 12.1542 74.4637 11.8583 73.8129 11.7104C73.1916 11.5329 72.1561 11.385 70.7064 11.2666C70.6768 10.7933 70.6768 10.3347 70.7064 9.8909C71.7123 9.8909 72.7478 9.90569 73.8129 9.93528C74.8779 9.96486 76.0613 9.97966 77.3631 9.97966C77.8069 9.97966 78.3986 9.97966 79.1382 9.97966C79.8779 9.97966 80.5583 9.96486 81.1796 9.93528L90.3659 34.2545ZM145.339 25.2901C145.339 28.4854 144.688 31.3108 143.387 33.7664C142.085 36.222 140.251 38.1598 137.884 39.5799C135.517 40.9704 132.721 41.6657 129.496 41.6657C126.301 41.6657 123.564 40.9852 121.286 39.6243C119.008 38.2633 117.248 36.3847 116.005 33.9882C114.792 31.5918 114.186 28.87 114.186 25.8227C114.186 22.657 114.837 19.8464 116.139 17.3908C117.44 14.9056 119.275 12.9678 121.641 11.5773C124.038 10.1572 126.834 9.44712 130.029 9.44712C133.195 9.44712 135.916 10.1276 138.194 11.4885C140.473 12.8494 142.233 14.7281 143.475 17.1245C144.718 19.4914 145.339 22.2132 145.339 25.2901ZM139.836 25.7339C139.836 23.9292 139.659 22.1689 139.304 20.4529C138.949 18.737 138.372 17.1837 137.573 15.7932C136.804 14.4027 135.783 13.308 134.511 12.5092C133.239 11.6808 131.686 11.2666 129.851 11.2666C127.988 11.2666 126.405 11.6808 125.103 12.5092C123.831 13.3376 122.795 14.4323 121.996 15.7932C121.227 17.1541 120.65 18.6778 120.266 20.3641C119.911 22.0505 119.733 23.7665 119.733 25.512C119.733 27.228 119.911 28.9439 120.266 30.6599C120.65 32.3463 121.242 33.8847 122.041 35.2752C122.84 36.6657 123.89 37.79 125.192 38.648C126.523 39.4763 128.121 39.8905 129.985 39.8905C131.819 39.8905 133.357 39.4911 134.6 38.6923C135.872 37.8935 136.893 36.8285 137.662 35.4971C138.431 34.1362 138.978 32.6125 139.304 30.9262C139.659 29.2398 139.836 27.509 139.836 25.7339ZM158.908 41.6213C158.879 41.6213 158.391 41.5917 157.444 41.5325C156.527 41.503 155.462 41.3846 154.249 41.1775C153.243 41 152.326 40.8817 151.497 40.8225C150.698 40.7337 150.21 40.6894 150.033 40.6894C150.003 38.2338 149.87 35.2604 149.633 31.7693C149.87 31.7398 150.107 31.725 150.343 31.725C150.61 31.725 150.846 31.725 151.053 31.725C151.616 34.3285 152.547 36.3403 153.849 37.7604C155.181 39.1805 156.926 39.8905 159.086 39.8905C161.009 39.8905 162.577 39.3728 163.79 38.3373C165.003 37.2722 165.609 35.8817 165.609 34.1658C165.609 32.864 165.269 31.7989 164.589 30.9705C163.938 30.1421 163.065 29.4469 161.97 28.8848C160.905 28.2931 159.766 27.7457 158.553 27.2428C157.133 26.6215 155.772 25.9706 154.471 25.2901C153.198 24.5801 152.148 23.6777 151.32 22.5831C150.491 21.4884 150.077 20.0683 150.077 18.3228C150.077 16.4589 150.536 14.8613 151.453 13.5299C152.4 12.1986 153.657 11.1927 155.225 10.5122C156.793 9.80215 158.524 9.44712 160.417 9.44712C161.009 9.44712 161.615 9.47671 162.237 9.53588C162.888 9.59505 163.553 9.6838 164.234 9.80215C165.092 9.92049 165.743 9.99445 166.186 10.024C166.66 10.0536 166.97 10.0684 167.118 10.0684C167.207 10.0684 167.37 10.0684 167.606 10.0684C167.843 10.0388 168.035 10.0092 168.183 9.97966C168.243 11.2814 168.302 12.6276 168.361 14.0181C168.42 15.4086 168.509 16.8583 168.627 18.3671C168.035 18.4559 167.547 18.4855 167.163 18.4559C166.482 15.882 165.639 14.0329 164.633 12.9086C163.627 11.7548 162.192 11.1779 160.328 11.1779C158.701 11.1779 157.311 11.6216 156.157 12.5092C155.003 13.3672 154.426 14.6542 154.426 16.3701C154.426 17.2873 154.633 18.1009 155.047 18.8109C155.491 19.521 156.216 20.2014 157.222 20.8523C158.228 21.5032 159.618 22.1984 161.394 22.9381C162.37 23.3523 163.346 23.8109 164.322 24.3138C165.328 24.8168 166.246 25.4233 167.074 26.1333C167.902 26.8138 168.568 27.657 169.071 28.6629C169.574 29.6392 169.825 30.8078 169.825 32.1687C169.825 34.1806 169.322 35.8965 168.317 37.3166C167.311 38.7071 165.979 39.7722 164.322 40.5118C162.695 41.2515 160.891 41.6213 158.908 41.6213ZM173.237 41.0444C173.148 40.6006 173.148 40.1272 173.237 39.6243C174.598 39.5059 175.574 39.3728 176.166 39.2249C176.787 39.0769 177.172 38.7811 177.32 38.3373C177.497 37.8639 177.586 37.1095 177.586 36.074V15.4382C177.586 14.1956 177.512 13.308 177.364 12.7755C177.216 12.2429 176.832 11.9027 176.21 11.7548C175.589 11.5773 174.583 11.4293 173.193 11.311C173.104 10.8672 173.104 10.3939 173.193 9.8909C173.784 9.8909 174.509 9.90569 175.367 9.93528C176.255 9.93528 177.127 9.95007 177.985 9.97966C178.843 9.97966 179.539 9.97966 180.071 9.97966C180.604 9.97966 181.284 9.97966 182.113 9.97966C182.971 9.95007 183.829 9.93528 184.687 9.93528C185.574 9.90569 186.284 9.8909 186.817 9.8909C186.905 10.3347 186.905 10.808 186.817 11.311C185.456 11.4293 184.465 11.5625 183.843 11.7104C183.222 11.8583 182.837 12.169 182.689 12.6423C182.542 13.0861 182.468 13.8258 182.468 14.8613V23.6038H198.444V15.4382C198.444 14.1956 198.37 13.308 198.222 12.7755C198.074 12.2429 197.704 11.9027 197.112 11.7548C196.521 11.5773 195.53 11.4293 194.139 11.311C194.08 10.8672 194.08 10.3939 194.139 9.8909C194.701 9.8909 195.411 9.90569 196.269 9.93528C197.127 9.93528 197.985 9.95007 198.843 9.97966C199.701 9.97966 200.396 9.97966 200.929 9.97966C201.521 9.97966 202.231 9.97966 203.059 9.97966C203.887 9.95007 204.716 9.93528 205.544 9.93528C206.402 9.90569 207.127 9.8909 207.719 9.8909C207.778 10.3347 207.778 10.808 207.719 11.311C206.328 11.4293 205.322 11.5625 204.701 11.7104C204.08 11.8583 203.695 12.169 203.547 12.6423C203.399 13.0861 203.325 13.8258 203.325 14.8613V35.4971C203.325 36.7101 203.399 37.5977 203.547 38.1598C203.695 38.6923 204.065 39.0474 204.657 39.2249C205.278 39.3728 206.299 39.5059 207.719 39.6243C207.778 40.1272 207.778 40.6006 207.719 41.0444C207.097 41.0444 206.358 41.0296 205.5 41C204.642 41 203.784 41 202.926 41C202.098 40.9704 201.402 40.9556 200.84 40.9556C200.308 40.9556 199.627 40.9704 198.799 41C197.97 41 197.142 41 196.314 41C195.485 41.0296 194.775 41.0444 194.183 41.0444C194.095 40.6006 194.095 40.1272 194.183 39.6243C195.544 39.5059 196.521 39.3728 197.112 39.2249C197.704 39.0769 198.074 38.7811 198.222 38.3373C198.37 37.8639 198.444 37.1095 198.444 36.074V25.5564H182.468V35.4971C182.468 36.7397 182.542 37.6273 182.689 38.1598C182.837 38.6923 183.207 39.0474 183.799 39.2249C184.42 39.3728 185.426 39.5059 186.817 39.6243C186.876 40.1272 186.876 40.6006 186.817 41.0444C186.225 41.0444 185.5 41.0296 184.642 41C183.784 41 182.926 41 182.068 41C181.24 40.9704 180.545 40.9556 179.982 40.9556C179.45 40.9556 178.755 40.9704 177.897 41C177.068 41 176.225 41 175.367 41C174.539 41.0296 173.829 41.0444 173.237 41.0444ZM210.552 41.0444C210.493 40.6006 210.493 40.1272 210.552 39.6243C211.943 39.4763 212.934 39.3432 213.525 39.2249C214.117 39.0769 214.487 38.7811 214.635 38.3373C214.783 37.8639 214.857 37.1095 214.857 36.074V15.4382C214.857 14.1956 214.783 13.308 214.635 12.7755C214.487 12.2429 214.102 11.9027 213.481 11.7548C212.889 11.5773 211.913 11.4293 210.552 11.311C210.493 10.8672 210.493 10.3939 210.552 9.8909C211.321 9.8909 211.987 9.90569 212.549 9.93528C213.141 9.93528 213.732 9.93528 214.324 9.93528C214.916 9.93528 215.626 9.95007 216.454 9.97966C217.283 9.97966 218.333 9.97966 219.605 9.97966C221.942 9.97966 224.132 9.97966 226.173 9.97966C228.215 9.95007 229.916 9.93528 231.277 9.93528C232.638 9.90569 233.436 9.8909 233.673 9.8909C233.791 10.9856 233.925 12.1098 234.072 13.2636C234.25 14.4175 234.442 15.6453 234.649 16.947C234.146 17.0062 233.658 17.0062 233.185 16.947C232.83 16.0595 232.416 15.2755 231.942 14.595C231.469 13.9145 230.981 13.3968 230.478 13.0418C229.916 12.6276 229.235 12.3169 228.436 12.1098C227.667 11.9027 226.706 11.7992 225.552 11.7992H219.738V23.9144H222.179C223.599 23.9144 224.679 23.8256 225.419 23.6481C226.158 23.441 226.706 23.012 227.061 22.3612C227.416 21.6807 227.697 20.6156 227.904 19.1659C228.436 19.0772 228.939 19.0772 229.413 19.1659C229.383 20.9411 229.354 22.2428 229.324 23.0712C229.324 23.8996 229.324 24.5209 229.324 24.9351C229.324 25.4085 229.324 26.1333 229.324 27.1096C229.354 28.0564 229.383 29.2842 229.413 30.793C228.969 30.8818 228.466 30.8818 227.904 30.793C227.726 29.225 227.46 28.1007 227.105 27.4203C226.75 26.7398 226.218 26.3108 225.507 26.1333C224.827 25.9558 223.851 25.867 222.579 25.867H219.738V35.4971C219.738 36.503 219.738 37.3166 219.738 37.9379C219.768 38.5296 219.798 38.9142 219.827 39.0917H225.907C227.386 39.0917 228.57 38.9734 229.457 38.7367C230.374 38.4704 231.129 38.0858 231.72 37.5829C232.135 37.2574 232.623 36.6953 233.185 35.8965C233.747 35.0681 234.28 34.1214 234.783 33.0563C235.256 32.9971 235.714 32.9971 236.158 33.0563C235.862 34.7131 235.611 36.2072 235.404 37.5385C235.197 38.8698 235.019 40.0237 234.871 41C233.54 41 232.09 41 230.522 41C228.954 41 227.386 41 225.818 41C224.25 40.9704 222.815 40.9556 221.513 40.9556C220.241 40.9556 219.221 40.9556 218.451 40.9556C217.061 40.9556 215.922 40.9704 215.034 41C214.176 41 213.407 41 212.727 41C212.076 41.0296 211.351 41.0444 210.552 41.0444ZM280.597 25.2901C280.597 28.4854 279.947 31.3108 278.645 33.7664C277.343 36.222 275.509 38.1598 273.142 39.5799C270.775 40.9704 267.979 41.6657 264.754 41.6657C261.559 41.6657 258.823 40.9852 256.544 39.6243C254.266 38.2633 252.506 36.3847 251.263 33.9882C250.05 31.5918 249.444 28.87 249.444 25.8227C249.444 22.657 250.095 19.8464 251.397 17.3908C252.698 14.9056 254.533 12.9678 256.899 11.5773C259.296 10.1572 262.092 9.44712 265.287 9.44712C268.453 9.44712 271.174 10.1276 273.453 11.4885C275.731 12.8494 277.491 14.7281 278.734 17.1245C279.976 19.4914 280.597 22.2132 280.597 25.2901ZM275.095 25.7339C275.095 23.9292 274.917 22.1689 274.562 20.4529C274.207 18.737 273.63 17.1837 272.831 15.7932C272.062 14.4027 271.041 13.308 269.769 12.5092C268.497 11.6808 266.944 11.2666 265.109 11.2666C263.246 11.2666 261.663 11.6808 260.361 12.5092C259.089 13.3376 258.053 14.4323 257.255 15.7932C256.485 17.1541 255.908 18.6778 255.524 20.3641C255.169 22.0505 254.991 23.7665 254.991 25.512C254.991 27.228 255.169 28.9439 255.524 30.6599C255.908 32.3463 256.5 33.8847 257.299 35.2752C258.098 36.6657 259.148 37.79 260.45 38.648C261.781 39.4763 263.379 39.8905 265.243 39.8905C267.077 39.8905 268.615 39.4911 269.858 38.6923C271.13 37.8935 272.151 36.8285 272.92 35.4971C273.689 34.1362 274.237 32.6125 274.562 30.9262C274.917 29.2398 275.095 27.509 275.095 25.7339ZM304.196 34.2545L313.693 9.93528C314.314 9.96486 314.965 9.97966 315.645 9.97966C316.326 9.97966 316.903 9.97966 317.376 9.97966C317.613 9.97966 318.042 9.97966 318.663 9.97966C319.314 9.95007 320.009 9.93528 320.749 9.93528C321.518 9.93528 322.213 9.93528 322.835 9.93528C323.486 9.90569 323.929 9.8909 324.166 9.8909C324.255 10.3347 324.255 10.7933 324.166 11.2666H324.077C322.716 11.4146 321.725 11.5625 321.104 11.7104C320.483 11.8287 320.098 12.1246 319.95 12.598C319.832 13.0418 319.773 13.7814 319.773 14.8169L320.128 35.5415C320.128 36.4586 320.157 37.1835 320.216 37.716C320.276 38.2486 320.438 38.6332 320.705 38.8698C320.971 39.1065 321.4 39.284 321.992 39.4024C322.583 39.4911 323.426 39.5799 324.521 39.6687C324.61 40.1124 324.61 40.571 324.521 41.0444C324.284 41.0444 323.841 41.0296 323.19 41C322.568 41 321.873 41 321.104 41C320.364 41 319.669 41 319.018 41C318.397 40.9704 317.968 40.9556 317.731 40.9556C317.495 40.9556 317.066 40.9704 316.444 41C315.823 41 315.142 41 314.403 41C313.663 41 312.983 41 312.361 41C311.74 41.0296 311.311 41.0444 311.074 41.0444C311.045 40.6006 311.045 40.142 311.074 39.6687H311.163C312.465 39.5207 313.412 39.3876 314.003 39.2693C314.595 39.1213 314.95 38.8255 315.069 38.3817C315.216 37.9083 315.29 37.1539 315.29 36.1184L314.891 12.3317L303.708 40.9556C303.501 41.0444 303.175 41.1035 302.731 41.1331C302.288 41.1627 301.903 41.1775 301.578 41.1775L291.06 13.2636L290.35 36.1184C290.32 37.0947 290.365 37.8048 290.483 38.2486C290.601 38.6627 290.956 38.9586 291.548 39.1361C292.14 39.3136 293.131 39.4911 294.521 39.6687C294.64 40.142 294.64 40.6006 294.521 41.0444C294.226 41.0444 293.708 41.0296 292.968 41C292.258 41 291.533 41 290.794 41C290.084 40.9704 289.566 40.9556 289.24 40.9556C289.063 40.9556 288.708 40.9704 288.175 41C287.672 41 287.11 41 286.489 41C285.868 41 285.291 41 284.758 41C284.255 41.0296 283.915 41.0444 283.738 41.0444C283.678 40.571 283.678 40.1124 283.738 39.6687C285.128 39.4911 286.119 39.3136 286.711 39.1361C287.303 38.9586 287.672 38.6036 287.82 38.071C287.998 37.5385 288.101 36.6953 288.131 35.5415L288.974 14.8169C289.033 13.7814 288.989 13.0418 288.841 12.598C288.693 12.1542 288.294 11.8583 287.643 11.7104C287.022 11.5329 285.986 11.385 284.536 11.2666C284.507 10.7933 284.507 10.3347 284.536 9.8909C285.542 9.8909 286.578 9.90569 287.643 9.93528C288.708 9.96486 289.891 9.97966 291.193 9.97966C291.637 9.97966 292.229 9.97966 292.968 9.97966C293.708 9.97966 294.388 9.96486 295.01 9.93528L304.196 34.2545Z" fill="#457464"></path><path d="M78.1573 53.9057C77.877 53.8356 77.585 53.7714 77.2814 53.713C77.0128 53.6546 76.7033 53.6079 76.353 53.5728C76.0143 53.5261 75.6581 53.5028 75.2844 53.5028C74.4202 53.5028 73.8012 53.6371 73.4275 53.9057C73.0538 54.1626 72.8669 54.5655 72.8669 55.1144C72.8786 55.5465 73.0363 55.9144 73.3399 56.218C73.6436 56.51 74.0231 56.7844 74.4786 57.0413C74.934 57.2866 75.4304 57.5318 75.9676 57.7771C76.5165 58.0106 77.0186 58.2851 77.4741 58.6004C77.9295 58.904 78.3091 59.2661 78.6127 59.6865C78.9281 60.0952 79.0857 60.5974 79.0857 61.193C79.0857 61.8821 78.9339 62.4368 78.6303 62.8572C78.3383 63.2776 77.9646 63.6046 77.5091 63.8382C77.0537 64.0718 76.5515 64.2294 76.0026 64.3112C75.4654 64.3929 74.9515 64.4338 74.461 64.4338C73.9939 64.4338 73.5676 64.4046 73.1823 64.3462C72.7969 64.2878 72.464 64.2236 72.1837 64.1535C71.8567 64.0718 71.5589 63.9783 71.2903 63.8732L71.6407 62.4543C71.9093 62.5711 72.1954 62.6704 72.4991 62.7521C72.7677 62.8222 73.0655 62.8864 73.3925 62.9448C73.7311 63.0032 74.0873 63.0324 74.461 63.0324C74.9165 63.0324 75.3311 63.0032 75.7048 62.9448C76.0902 62.8864 76.423 62.793 76.7033 62.6645C76.9836 62.536 77.1996 62.3667 77.3515 62.1565C77.515 61.9463 77.5967 61.6894 77.5967 61.3857C77.585 60.9303 77.4332 60.5624 77.1413 60.2821C76.861 59.9901 76.4814 59.7157 76.0026 59.4588C75.5355 59.1902 75.0275 58.9332 74.4786 58.688C73.9414 58.4427 73.445 58.1625 72.9896 57.8471C72.5341 57.5318 72.1487 57.1581 71.8334 56.726C71.5297 56.2939 71.3779 55.7567 71.3779 55.1144C71.3779 54.7407 71.4422 54.3728 71.5706 54.0108C71.6991 53.6487 71.9151 53.3276 72.2188 53.0473C72.5341 52.767 72.937 52.5393 73.4275 52.3641C73.9297 52.1889 74.5486 52.1013 75.2844 52.1013C75.7048 52.1013 76.1019 52.1247 76.4756 52.1714C76.861 52.2064 77.1938 52.2473 77.4741 52.294C77.8011 52.3524 78.1106 52.4167 78.4025 52.4867L78.1573 53.9057ZM83.1913 52.259H84.6803L88.1138 62.8047H88.1313L91.5122 52.259H93.0012L89.0247 64.2061H87.1678L83.1913 52.259ZM100.383 52.259H102.205L106.304 64.2061H104.78L103.729 61.0178H98.8767L97.8082 64.2061H96.2841L100.383 52.259ZM103.256 59.6164L101.329 53.6604H101.277L99.3322 59.6164H103.256ZM111.338 52.259H114.281C114.923 52.259 115.507 52.3174 116.033 52.4342C116.57 52.5393 117.025 52.7261 117.399 52.9947C117.773 53.2517 118.059 53.5962 118.257 54.0283C118.456 54.4604 118.555 55.0034 118.555 55.6574C118.544 56.3815 118.421 56.9713 118.187 57.4267C117.954 57.8705 117.668 58.2325 117.329 58.5128C116.99 58.7814 116.599 58.98 116.155 59.1084V59.1435C116.202 59.1902 116.272 59.2778 116.366 59.4062C116.471 59.523 116.558 59.6281 116.628 59.7215L120.009 64.2061H118.275L114.806 59.4588H112.809V64.2061H111.338V52.259ZM117.066 55.9027C117.066 55.4122 117.002 55.0151 116.874 54.7115C116.757 54.3962 116.576 54.1568 116.331 53.9933C116.097 53.8298 115.805 53.7188 115.455 53.6604C115.104 53.602 114.707 53.5728 114.263 53.5728H112.809V58.1449H114.544C114.999 58.1449 115.385 58.0866 115.7 57.9698C116.015 57.853 116.272 57.6953 116.471 57.4968C116.669 57.2866 116.815 57.0472 116.909 56.7786C117.002 56.51 117.055 56.218 117.066 55.9027ZM133.642 53.9407C133.128 53.8356 132.579 53.7363 131.995 53.6429C131.423 53.5495 130.757 53.4911 129.998 53.4677C129.227 53.4794 128.562 53.5962 128.001 53.8181C127.441 54.04 126.979 54.3611 126.617 54.7815C126.267 55.1903 126.004 55.6808 125.829 56.253C125.654 56.8253 125.566 57.4559 125.566 58.1449C125.566 59.0325 125.677 59.7916 125.899 60.4222C126.133 61.0529 126.448 61.5726 126.845 61.9813C127.254 62.3784 127.727 62.6704 128.264 62.8572C128.801 63.0441 129.379 63.1375 129.998 63.1375C130.395 63.1375 130.751 63.1141 131.067 63.0674C131.394 63.0207 131.674 62.9682 131.908 62.9098C132.153 62.8397 132.375 62.7638 132.573 62.682V59.4763H130.384V58.1625H134.062V63.4003C133.654 63.6689 133.087 63.9141 132.363 64.136C131.651 64.3462 130.862 64.4455 129.998 64.4338C129.204 64.4338 128.439 64.3404 127.703 64.1535C126.979 63.9667 126.331 63.6397 125.759 63.1725C125.198 62.6937 124.749 62.0456 124.41 61.2281C124.071 60.4106 123.902 59.377 123.902 58.1274C123.902 57.1114 124.06 56.2297 124.375 55.4823C124.69 54.7232 125.117 54.0984 125.654 53.6079C126.203 53.1057 126.833 52.732 127.546 52.4867C128.27 52.2298 129.035 52.1013 129.841 52.1013C130.366 52.1013 130.874 52.1305 131.365 52.1889C131.855 52.2356 132.305 52.294 132.713 52.3641C133.122 52.4225 133.513 52.4984 133.887 52.5918L133.642 53.9407ZM142.723 52.259H144.545L148.644 64.2061H147.12L146.069 61.0178H141.216L140.148 64.2061H138.624L142.723 52.259ZM145.596 59.6164L143.669 53.6604H143.616L141.672 59.6164H145.596ZM160.834 52.259H162.305V64.2061H160.834V52.259ZM168.537 52.259H169.939L176.21 61.7361H176.245C176.222 61.3974 176.204 61.0354 176.193 60.65C176.169 60.323 176.152 59.9493 176.14 59.5288C176.14 59.0967 176.14 58.6588 176.14 58.215V52.259H177.541V64.2061H176.14L169.869 54.694H169.834C169.845 55.0443 169.863 55.4122 169.886 55.7976C169.898 56.1362 169.91 56.5158 169.921 56.9362C169.933 57.3566 169.939 57.7888 169.939 58.2325V64.2061H168.537V52.259ZM186.29 53.6254H182.542V52.259H191.511V53.6254H187.762V64.2061H186.29V53.6254ZM196.501 52.259H203.824V53.6079H197.973V57.4267H203.403V58.7405H197.973V62.8572H203.999V64.2061H196.501V52.259ZM209.542 52.259H212.485C213.128 52.259 213.712 52.3174 214.237 52.4342C214.774 52.5393 215.23 52.7261 215.604 52.9947C215.977 53.2517 216.263 53.5962 216.462 54.0283C216.66 54.4604 216.76 55.0034 216.76 55.6574C216.748 56.3815 216.625 56.9713 216.392 57.4267C216.158 57.8705 215.872 58.2325 215.534 58.5128C215.195 58.7814 214.804 58.98 214.36 59.1084V59.1435C214.407 59.1902 214.477 59.2778 214.57 59.4062C214.675 59.523 214.763 59.6281 214.833 59.7215L218.214 64.2061H216.479L213.011 59.4588H211.014V64.2061H209.542V52.259ZM215.271 55.9027C215.271 55.4122 215.207 55.0151 215.078 54.7115C214.961 54.3962 214.78 54.1568 214.535 53.9933C214.301 53.8298 214.009 53.7188 213.659 53.6604C213.309 53.602 212.912 53.5728 212.468 53.5728H211.014V58.1449H212.748C213.204 58.1449 213.589 58.0866 213.904 57.9698C214.22 57.853 214.477 57.6953 214.675 57.4968C214.874 57.2866 215.02 57.0472 215.113 56.7786C215.207 56.51 215.259 56.218 215.271 55.9027ZM222.84 52.259H224.242L230.513 61.7361H230.548C230.525 61.3974 230.507 61.0354 230.495 60.65C230.472 60.323 230.455 59.9493 230.443 59.5288C230.443 59.0967 230.443 58.6588 230.443 58.215V52.259H231.844V64.2061H230.443L224.172 54.694H224.136C224.148 55.0443 224.166 55.4122 224.189 55.7976C224.201 56.1362 224.212 56.5158 224.224 56.9362C224.236 57.3566 224.242 57.7888 224.242 58.2325V64.2061H222.84V52.259ZM240.979 52.259H242.8L246.9 64.2061H245.375L244.324 61.0178H239.472L238.403 64.2061H236.879L240.979 52.259ZM243.851 59.6164L241.924 53.6604H241.872L239.927 59.6164H243.851ZM253.6 53.6254H249.851V52.259H258.82V53.6254H255.072V64.2061H253.6V53.6254ZM263.811 52.259H265.283V64.2061H263.811V52.259ZM270.867 58.2325C270.867 57.0997 271.042 56.1421 271.392 55.3596C271.754 54.5772 272.21 53.9465 272.759 53.4677C273.319 52.9889 273.938 52.6444 274.615 52.4342C275.304 52.2123 275.976 52.1013 276.63 52.1013C277.284 52.1013 277.95 52.1948 278.627 52.3816C279.316 52.5568 279.935 52.878 280.484 53.3451C281.044 53.8006 281.5 54.4254 281.85 55.2195C282.212 56.0136 282.393 57.0238 282.393 58.2501C282.393 59.3945 282.212 60.358 281.85 61.1405C281.5 61.9229 281.044 62.5594 280.484 63.0499C279.935 63.5404 279.316 63.8966 278.627 64.1185C277.95 64.3287 277.284 64.4338 276.63 64.4338C275.976 64.4338 275.304 64.3287 274.615 64.1185C273.938 63.9083 273.319 63.5638 272.759 63.0849C272.21 62.6061 271.754 61.9696 271.392 61.1755C271.042 60.3814 270.867 59.4004 270.867 58.2325ZM280.729 58.3201C280.729 56.7435 280.361 55.5465 279.625 54.729C278.901 53.9115 277.926 53.5028 276.7 53.5028C276.081 53.5028 275.515 53.602 275.001 53.8006C274.499 53.9874 274.061 54.2735 273.687 54.6589C273.325 55.0443 273.039 55.529 272.829 56.1129C272.63 56.6851 272.531 57.3625 272.531 58.1449C272.531 59.7215 272.893 60.9303 273.617 61.7711C274.353 62.612 275.334 63.0324 276.56 63.0324C277.167 63.0324 277.728 62.939 278.242 62.7521C278.755 62.5536 279.193 62.2558 279.555 61.8587C279.929 61.4616 280.215 60.9711 280.414 60.3872C280.624 59.8033 280.729 59.1143 280.729 58.3201ZM287.977 52.259H289.379L295.65 61.7361H295.685C295.662 61.3974 295.644 61.0354 295.633 60.65C295.609 60.323 295.592 59.9493 295.58 59.5288C295.58 59.0967 295.58 58.6588 295.58 58.215V52.259H296.981V64.2061H295.58L289.309 54.694H289.274C289.285 55.0443 289.303 55.4122 289.326 55.7976C289.338 56.1362 289.35 56.5158 289.361 56.9362C289.373 57.3566 289.379 57.7888 289.379 58.2325V64.2061H287.977V52.259ZM306.116 52.259H307.937L312.037 64.2061H310.513L309.462 61.0178H304.609L303.541 64.2061H302.016L306.116 52.259ZM308.989 59.6164L307.062 53.6604H307.009L305.065 59.6164H308.989ZM317.07 52.259H318.542V62.8047H323.972V64.2061H317.07V52.259Z" fill="#457464"></path></svg> 