<?xml version="1.0" encoding="UTF-8"?> <svg xmlns="http://www.w3.org/2000/svg" width="1761" height="360" viewBox="0 0 1761 360" fill="none"><path d="M132.701 49.4568C141.206 57.8796 149.249 66.877 156.421 76.5002C175.77 51.8061 200.484 22.5468 234.34 20.0435C329.956 12.9749 339.815 151.895 254.776 166.669C210.323 174.394 178.929 137.984 157.005 104.857L154.892 104.221C138.416 127.396 117.415 158.164 88.0016 165.068C0.202912 185.689 -33.6219 59.4288 41.3323 26.0657C76.5318 10.3998 107.433 24.4139 132.701 49.4568ZM193.467 57.6642C189.384 61.7063 165.48 88.0008 165.469 91.3864C188.327 122.082 213.657 162.883 258.5 149.874C311.951 134.373 309.981 52.1344 257.249 37.238C231.6 29.995 211.256 40.0388 193.477 57.6642H193.467ZM113.198 132.311C118.636 127.068 123.776 121.343 128.628 115.414C131.121 112.367 146.715 92.0122 146.654 90.3399C124.545 60.2803 96.2296 24.8551 53.787 37.4945C7.86658 51.1701 0.695356 119.528 41.7119 144.027C68.5398 160.052 92.2182 152.532 113.198 132.311Z" fill="#EEC56C"></path><path d="M69.3604 76.8809C70.2119 77.7222 74.0694 84.3086 74.8491 83.6931C79.6709 68.058 102.272 66.95 108.448 82.4312C117.384 104.817 87.9912 121.416 74.2027 133.881C63.6767 125.038 39.4239 108.88 37.9363 94.4755C36.0178 75.9063 55.613 63.2771 69.3706 76.8809H69.3604Z" fill="#EEC56C"></path><path d="M197.54 85.324C229.508 54.536 263.866 63.5026 288.139 97.4094C269.775 121.724 242.116 137.698 212.385 121.088C207.019 118.092 190.481 103.226 188.204 98.025C186.696 94.5779 194.965 87.817 197.54 85.3343V85.324ZM210.713 107.884C234.391 126.556 257.515 118.913 274.833 96.6605C267.446 88.4326 256.377 79.2198 245.389 76.7986C226.707 72.6846 211.718 84.4417 200.043 97.5428C203.613 100.877 206.906 104.878 210.713 107.884Z" fill="#EEC56C"></path><path d="M237.592 112.335C246.091 112.335 252.981 105.446 252.981 96.9465C252.981 88.4475 246.091 81.5576 237.592 81.5576C229.093 81.5576 222.203 88.4475 222.203 96.9465C222.203 105.446 229.093 112.335 237.592 112.335Z" fill="#EEC56C"></path><path d="M271.796 234.382C264.666 234.382 248.6 243.913 243.542 249.217C240.413 252.5 238.977 257.157 235.386 260.03C238.782 252.52 242.157 245.103 243.48 236.844C245.953 221.373 242.547 205.399 246.661 190.277C230.39 190.698 213.041 195.202 201.5 207.174L194.349 217.967C193.477 190.657 174.138 171.02 156.892 152.328C138.918 170.251 121.323 190.636 118.41 216.941L108.171 204.117C96.4756 194.555 81.0354 190.595 66.0979 190.287C70.7043 200.136 67.9343 209.534 68.1087 219.567C68.3139 231.858 71.1968 244.425 75.321 255.936C67.1444 245.441 53.4688 235.921 39.9368 234.392C34.6225 233.797 28.4362 234.823 23.009 234.392C35.5458 247.267 36.7975 264.944 45.405 280.22C58.3419 303.19 79.1477 312.229 105.083 312.373C104.621 314.168 100.969 313.265 98.9173 313.891C89.0068 316.917 80.6455 326.828 78.4193 336.984C96.4961 333.496 110.756 343.94 129.141 338.985C139.811 336.102 150.162 328.931 155.887 319.544C157.19 319.533 163.489 327.546 165.613 329.311C170.558 333.425 180.601 338.595 186.901 339.826C202.926 342.945 219.33 333.466 235.386 338.01C233.006 327.443 226.204 319 216.468 314.363L206.67 312.373C226.532 312.075 246.681 308.105 259.988 292.326C270.585 279.758 275.756 263.898 280.814 248.519L289.77 234.392H271.817L271.796 234.382ZM160.986 196.761C162.022 196.823 168.075 201.891 168.742 203.04C173.184 210.673 160.329 220.285 153.281 212.355C147.987 206.405 155.713 199.582 160.996 196.761H160.986ZM151.301 218.439C157.97 220.521 163.489 220.603 170.014 217.762C172.948 216.479 176.046 212.376 178.242 212.94L184.869 223.661C170.609 234.618 141.739 235.202 139.954 212.847C144.037 214.325 146.91 217.064 151.281 218.439H151.301ZM183.474 302.011C169.86 303.662 158.39 288.222 165.12 276.455C166.813 275.624 167.839 279.994 169.06 281.215C185.7 297.948 202.669 269.653 192.728 252.92C188.994 246.631 181.217 243.871 176.426 250.827C174.23 254.018 173.625 259.199 171.625 262.441C167.613 268.914 159.355 270.31 152.286 270.299L157.221 276.127C169.696 312.526 123.745 318.374 107.72 290.746C104.734 285.586 100.477 270.689 102.775 265.406C103.401 263.959 103.011 263.857 105.073 264.134C106.458 282.385 122.134 299.333 141.237 291.567C150.542 287.781 151.814 275.839 142.417 271.428C138.99 269.817 132.055 269.673 130.7 268.791C129.469 267.991 125.909 258.183 129.356 257.106C133.491 255.803 143.35 257.824 144.027 250.201C145.31 235.828 124.894 241.635 118.943 248.714C115.076 245.308 111.505 241.635 111.351 236.085C134.712 213.596 170.065 238.557 144.079 264.123C164.751 267.191 156.851 239.121 175.605 235.644C212.21 228.872 217.422 297.897 183.474 302.011Z" fill="#EEC56C"></path><path d="M1649.92 134.969L1701.59 2.65551C1704.97 2.81647 1708.51 2.89695 1712.21 2.89695C1715.91 2.89695 1719.05 2.89695 1721.63 2.89695C1722.91 2.89695 1725.25 2.89695 1728.63 2.89695C1732.17 2.73599 1735.95 2.65551 1739.98 2.65551C1744.16 2.65551 1747.94 2.65551 1751.33 2.65551C1754.87 2.49455 1757.28 2.41406 1758.57 2.41406C1759.05 4.82853 1759.05 7.32349 1758.57 9.89894H1758.09C1750.68 10.7038 1745.29 11.5086 1741.91 12.3134C1738.53 12.9573 1736.44 14.5669 1735.63 17.1424C1734.99 19.5568 1734.67 23.581 1734.67 29.2147L1736.6 141.971C1736.6 146.961 1736.76 150.904 1737.08 153.802C1737.4 156.699 1738.29 158.791 1739.74 160.079C1741.18 161.367 1743.52 162.333 1746.74 162.977C1749.96 163.459 1754.54 163.942 1760.5 164.425C1760.98 166.84 1760.98 169.335 1760.5 171.91C1759.21 171.91 1756.8 171.83 1753.26 171.669C1749.88 171.669 1746.09 171.669 1741.91 171.669C1737.88 171.669 1734.1 171.669 1730.56 171.669C1727.18 171.508 1724.85 171.427 1723.56 171.427C1722.27 171.427 1719.94 171.508 1716.56 171.669C1713.18 171.669 1709.47 171.669 1705.45 171.669C1701.43 171.669 1697.72 171.669 1694.34 171.669C1690.96 171.83 1688.63 171.91 1687.34 171.91C1687.18 169.496 1687.18 167.001 1687.34 164.425H1687.82C1694.91 163.62 1700.06 162.896 1703.28 162.252C1706.5 161.447 1708.43 159.838 1709.07 157.423C1709.88 154.848 1710.28 150.743 1710.28 145.109L1708.11 15.6937L1647.26 171.427C1646.13 171.91 1644.36 172.232 1641.95 172.393C1639.54 172.554 1637.44 172.634 1635.67 172.634L1578.45 20.7641L1574.59 145.109C1574.42 150.421 1574.67 154.284 1575.31 156.699C1575.95 158.952 1577.89 160.562 1581.1 161.528C1584.32 162.494 1589.72 163.459 1597.28 164.425C1597.93 167.001 1597.93 169.496 1597.28 171.91C1595.67 171.91 1592.86 171.83 1588.83 171.669C1584.97 171.669 1581.02 171.669 1577 171.669C1573.14 171.508 1570.32 171.427 1568.55 171.427C1567.58 171.427 1565.65 171.508 1562.75 171.669C1560.02 171.669 1556.96 171.669 1553.58 171.669C1550.2 171.669 1547.06 171.669 1544.16 171.669C1541.43 171.83 1539.58 171.91 1538.61 171.91C1538.29 169.335 1538.29 166.84 1538.61 164.425C1546.18 163.459 1551.57 162.494 1554.79 161.528C1558.01 160.562 1560.02 158.63 1560.82 155.733C1561.79 152.836 1562.35 148.248 1562.51 141.971L1567.1 29.2147C1567.42 23.581 1567.18 19.5568 1566.38 17.1424C1565.57 14.7279 1563.4 13.1182 1559.86 12.3134C1556.48 11.3476 1550.84 10.5428 1542.96 9.89894C1542.8 7.32349 1542.8 4.82853 1542.96 2.41406C1548.43 2.41406 1554.06 2.49455 1559.86 2.65551C1565.65 2.81647 1572.09 2.89695 1579.17 2.89695C1581.59 2.89695 1584.81 2.89695 1588.83 2.89695C1592.86 2.89695 1596.56 2.81647 1599.94 2.65551L1649.92 134.969Z" fill="#EEC56C"></path><path d="M1521.53 86.1967C1521.53 103.581 1517.98 118.953 1510.9 132.313C1503.82 145.673 1493.84 156.216 1480.96 163.943C1468.09 171.508 1452.87 175.291 1435.33 175.291C1417.94 175.291 1403.06 171.589 1390.66 164.184C1378.27 156.78 1368.69 146.559 1361.93 133.52C1355.33 120.482 1352.03 105.673 1352.03 89.0941C1352.03 71.8708 1355.57 56.5792 1362.65 43.2191C1369.74 29.698 1379.72 19.1548 1392.59 11.5895C1405.63 3.86316 1420.84 0 1438.23 0C1455.45 0 1470.26 3.70219 1482.65 11.1066C1495.05 18.511 1504.62 28.7322 1511.39 41.7704C1518.15 54.6476 1521.53 69.4563 1521.53 86.1967ZM1491.59 88.6112C1491.59 78.7923 1490.62 69.2149 1488.69 59.8789C1486.76 50.543 1483.62 42.0923 1479.27 34.527C1475.09 26.9616 1469.53 21.0059 1462.61 16.6599C1455.69 12.1528 1447.24 9.89935 1437.26 9.89935C1427.12 9.89935 1418.51 12.1528 1411.43 16.6599C1404.5 21.1669 1398.87 27.1226 1394.52 34.527C1390.34 41.9314 1387.2 50.221 1385.11 59.396C1383.18 68.571 1382.21 77.907 1382.21 87.4039C1382.21 96.7399 1383.18 106.076 1385.11 115.412C1387.2 124.587 1390.42 132.957 1394.77 140.522C1399.11 148.088 1404.83 154.204 1411.91 158.872C1419.15 163.379 1427.84 165.633 1437.99 165.633C1447.96 165.633 1456.33 163.46 1463.1 159.114C1470.02 154.768 1475.57 148.973 1479.76 141.73C1483.94 134.325 1486.92 126.036 1488.69 116.861C1490.62 107.686 1491.59 98.2691 1491.59 88.6112Z" fill="#EEC56C"></path><path d="M1140.43 171.91C1140.11 169.496 1140.11 166.92 1140.43 164.184C1148 163.379 1153.39 162.655 1156.61 162.011C1159.83 161.206 1161.84 159.596 1162.64 157.182C1163.45 154.606 1163.85 150.502 1163.85 144.868V32.595C1163.85 25.8345 1163.45 21.0055 1162.64 18.1081C1161.84 15.2108 1159.75 13.3597 1156.37 12.5549C1153.15 11.5891 1147.84 10.7842 1140.43 10.1404C1140.11 7.72591 1140.11 5.15047 1140.43 2.41406C1144.62 2.41406 1148.24 2.49455 1151.3 2.65551C1154.52 2.65551 1157.74 2.65551 1160.95 2.65551C1164.17 2.65551 1168.04 2.73599 1172.54 2.89695C1177.05 2.89695 1182.77 2.89695 1189.69 2.89695C1202.4 2.89695 1214.31 2.89695 1225.42 2.89695C1236.53 2.73599 1245.78 2.65551 1253.19 2.65551C1260.59 2.49455 1264.94 2.41406 1266.23 2.41406C1266.87 8.36976 1267.59 14.4864 1268.4 20.7641C1269.36 27.0417 1270.41 33.7217 1271.54 40.8042C1268.8 41.1261 1266.14 41.1261 1263.57 40.8042C1261.64 35.9752 1259.38 31.7097 1256.81 28.0075C1254.23 24.3053 1251.58 21.4884 1248.84 19.5568C1245.78 17.3033 1242.08 15.6132 1237.73 14.4864C1233.55 13.3597 1228.32 12.7963 1222.04 12.7963H1190.41V78.7114H1203.69C1211.42 78.7114 1217.29 78.2285 1221.32 77.2627C1225.34 76.136 1228.32 73.802 1230.25 70.2608C1232.18 66.5586 1233.71 60.7638 1234.84 52.8766C1237.73 52.3937 1240.47 52.3937 1243.05 52.8766C1242.89 62.5345 1242.72 69.6169 1242.56 74.1239C1242.56 78.6309 1242.56 82.0112 1242.56 84.2647C1242.56 86.8401 1242.56 90.7838 1242.56 96.0956C1242.72 101.247 1242.89 107.927 1243.05 116.136C1240.63 116.619 1237.9 116.619 1234.84 116.136C1233.87 107.605 1232.42 101.488 1230.49 97.7858C1228.56 94.0836 1225.66 91.7496 1221.8 90.7838C1218.1 89.818 1212.79 89.3351 1205.86 89.3351H1190.41V141.729C1190.41 147.202 1190.41 151.629 1190.41 155.009C1190.57 158.228 1190.73 160.321 1190.89 161.286H1223.97C1232.02 161.286 1238.46 160.643 1243.29 159.355C1248.28 157.906 1252.38 155.814 1255.6 153.077C1257.86 151.307 1260.51 148.248 1263.57 143.902C1266.63 139.395 1269.53 134.244 1272.26 128.45C1274.84 128.128 1277.33 128.128 1279.75 128.45C1278.14 137.464 1276.77 145.592 1275.64 152.836C1274.52 160.079 1273.55 166.357 1272.74 171.669C1265.5 171.669 1257.61 171.669 1249.08 171.669C1240.55 171.669 1232.02 171.669 1223.49 171.669C1214.96 171.508 1207.15 171.427 1200.07 171.427C1193.15 171.427 1187.59 171.427 1183.41 171.427C1175.84 171.427 1169.65 171.508 1164.82 171.669C1160.15 171.669 1155.96 171.669 1152.26 171.669C1148.72 171.83 1144.78 171.91 1140.43 171.91Z" fill="#EEC56C"></path><path d="M937.412 171.91C936.929 169.496 936.929 166.92 937.412 164.184C944.816 163.54 950.128 162.816 953.348 162.011C956.728 161.206 958.82 159.596 959.625 157.182C960.591 154.606 961.074 150.502 961.074 144.868V32.595C961.074 25.8345 960.671 21.0055 959.867 18.1081C959.062 15.2108 956.969 13.3597 953.589 12.5549C950.209 11.5891 944.736 10.7842 937.171 10.1404C936.688 7.72591 936.688 5.15047 937.171 2.41406C940.39 2.41406 944.333 2.49455 949.001 2.65551C953.83 2.65551 958.579 2.73599 963.247 2.89695C967.915 2.89695 971.697 2.89695 974.595 2.89695C977.492 2.89695 981.194 2.89695 985.701 2.89695C990.369 2.73599 995.037 2.65551 999.705 2.65551C1004.53 2.49455 1008.4 2.41406 1011.29 2.41406C1011.78 4.82853 1011.78 7.40397 1011.29 10.1404C1003.89 10.7842 998.498 11.5086 995.118 12.3134C991.738 13.1182 989.645 14.8084 988.84 17.3838C988.035 19.7983 987.633 23.8224 987.633 29.4562V77.0213H1074.55V32.595C1074.55 25.8345 1074.15 21.0055 1073.35 18.1081C1072.54 15.2108 1070.53 13.3597 1067.31 12.5549C1064.09 11.5891 1058.7 10.7842 1051.13 10.1404C1050.81 7.72591 1050.81 5.15047 1051.13 2.41406C1054.19 2.41406 1058.06 2.49455 1062.72 2.65551C1067.39 2.65551 1072.06 2.73599 1076.73 2.89695C1081.4 2.89695 1085.18 2.89695 1088.08 2.89695C1091.29 2.89695 1095.16 2.89695 1099.66 2.89695C1104.17 2.73599 1108.68 2.65551 1113.19 2.65551C1117.85 2.49455 1121.8 2.41406 1125.02 2.41406C1125.34 4.82853 1125.34 7.40397 1125.02 10.1404C1117.45 10.7842 1111.98 11.5086 1108.6 12.3134C1105.22 13.1182 1103.13 14.8084 1102.32 17.3838C1101.52 19.7983 1101.11 23.8224 1101.11 29.4562V141.729C1101.11 148.329 1101.52 153.158 1102.32 156.216C1103.13 159.113 1105.14 161.045 1108.36 162.011C1111.74 162.816 1117.29 163.54 1125.02 164.184C1125.34 166.92 1125.34 169.496 1125.02 171.91C1121.64 171.91 1117.61 171.83 1112.94 171.669C1108.28 171.669 1103.61 171.669 1098.94 171.669C1094.43 171.508 1090.65 171.427 1087.59 171.427C1084.69 171.427 1080.99 171.508 1076.49 171.669C1071.98 171.669 1067.47 171.669 1062.96 171.669C1058.46 171.83 1054.59 171.91 1051.38 171.91C1050.89 169.496 1050.89 166.92 1051.38 164.184C1058.78 163.54 1064.09 162.816 1067.31 162.011C1070.53 161.206 1072.54 159.596 1073.35 157.182C1074.15 154.606 1074.55 150.502 1074.55 144.868V87.645H987.633V141.729C987.633 148.49 988.035 153.319 988.84 156.216C989.645 159.113 991.657 161.045 994.876 162.011C998.257 162.816 1003.73 163.54 1011.29 164.184C1011.62 166.92 1011.62 169.496 1011.29 171.91C1008.08 171.91 1004.13 171.83 999.464 171.669C994.796 171.669 990.128 171.669 985.46 171.669C980.953 171.508 977.17 171.427 974.112 171.427C971.215 171.427 967.432 171.508 962.764 171.669C958.257 171.669 953.669 171.669 949.001 171.669C944.494 171.83 940.631 171.91 937.412 171.91Z" fill="#EEC56C"></path><path d="M859.455 175.049C859.294 175.049 856.638 174.888 851.487 174.566C846.497 174.405 840.702 173.762 834.103 172.635C828.63 171.669 823.64 171.025 819.133 170.703C814.787 170.22 812.131 169.979 811.165 169.979C811.004 156.619 810.28 140.442 808.992 121.448C810.28 121.287 811.568 121.207 812.855 121.207C814.304 121.207 815.592 121.207 816.719 121.207C819.777 135.371 824.847 146.317 831.93 154.043C839.173 161.77 848.67 165.633 860.42 165.633C870.883 165.633 879.414 162.816 886.014 157.182C892.613 151.387 895.913 143.822 895.913 134.486C895.913 127.404 894.062 121.609 890.36 117.102C886.819 112.595 882.07 108.812 876.115 105.754C870.32 102.535 864.123 99.5568 857.523 96.8204C849.797 93.4401 842.392 89.8989 835.31 86.1967C828.388 82.3335 822.674 77.4241 818.167 71.4684C813.66 65.5127 811.407 57.7864 811.407 48.2895C811.407 38.1487 813.902 29.4566 818.892 22.2132C824.042 14.9697 830.883 9.49693 839.415 5.79473C847.946 1.93158 857.362 0 867.664 0C870.883 0 874.183 0.160965 877.563 0.482891C881.104 0.804826 884.726 1.28772 888.428 1.93158C893.096 2.57543 896.638 2.97785 899.052 3.13882C901.627 3.29978 903.318 3.38026 904.122 3.38026C904.605 3.38026 905.491 3.38026 906.778 3.38026C908.066 3.2193 909.112 3.05833 909.917 2.89736C910.239 9.97982 910.561 17.3037 910.883 24.8691C911.205 32.4344 911.688 40.3217 912.332 48.5309C909.112 49.0138 906.456 49.1748 904.364 49.0138C900.662 35.0099 896.074 24.9496 890.601 18.8329C885.129 12.5553 877.322 9.41644 867.181 9.41644C858.328 9.41644 850.763 11.8309 844.485 16.6599C838.207 21.3278 835.069 28.3298 835.069 37.6658C835.069 42.6557 836.195 47.0822 838.449 50.9454C840.863 54.8086 844.807 58.5107 850.28 62.052C855.752 65.5932 863.318 69.3759 872.976 73.4C878.288 75.6535 883.599 78.1485 888.911 80.8849C894.384 83.6213 899.374 86.921 903.881 90.7842C908.388 94.4864 912.01 99.0739 914.746 104.547C917.483 109.859 918.851 116.217 918.851 123.621C918.851 134.567 916.114 143.903 910.642 151.629C905.169 159.194 897.925 164.989 888.911 169.013C880.058 173.037 870.239 175.049 859.455 175.049Z" fill="#EEC56C"></path><path d="M785.63 86.1967C785.63 103.581 782.089 118.953 775.007 132.313C767.924 145.673 757.944 156.216 745.067 163.943C732.19 171.508 716.979 175.291 699.434 175.291C682.049 175.291 667.16 171.589 654.766 164.184C642.372 156.78 632.794 146.559 626.034 133.52C619.434 120.482 616.134 105.673 616.134 89.0941C616.134 71.8708 619.676 56.5792 626.758 43.2191C633.84 29.698 643.82 19.1548 656.697 11.5895C669.736 3.86316 684.947 0 702.331 0C719.554 0 734.363 3.70219 746.757 11.1066C759.152 18.511 768.729 28.7322 775.49 41.7704C782.25 54.6476 785.63 69.4563 785.63 86.1967ZM755.691 88.6112C755.691 78.7923 754.725 69.2149 752.793 59.8789C750.862 50.543 747.723 42.0923 743.377 34.527C739.192 26.9616 733.639 21.0059 726.717 16.6599C719.796 12.1528 711.345 9.89935 701.365 9.89935C691.224 9.89935 682.613 12.1528 675.53 16.6599C668.609 21.1669 662.975 27.1226 658.629 34.527C654.444 41.9314 651.305 50.221 649.213 59.396C647.281 68.571 646.315 77.907 646.315 87.4039C646.315 96.7399 647.281 106.076 649.213 115.412C651.305 124.587 654.524 132.957 658.87 140.522C663.217 148.088 668.931 154.204 676.013 158.872C683.257 163.379 691.949 165.633 702.09 165.633C712.069 165.633 720.44 163.46 727.2 159.114C734.122 154.768 739.675 148.973 743.86 141.73C748.045 134.325 751.023 126.036 752.793 116.861C754.725 107.686 755.691 98.2691 755.691 88.6112Z" fill="#EEC56C"></path><path d="M486.537 134.969L538.207 2.65551C541.587 2.81647 545.128 2.89695 548.831 2.89695C552.533 2.89695 555.672 2.89695 558.247 2.89695C559.535 2.89695 561.869 2.89695 565.249 2.89695C568.79 2.73599 572.573 2.65551 576.597 2.65551C580.782 2.65551 584.565 2.65551 587.945 2.65551C591.486 2.49455 593.901 2.41406 595.189 2.41406C595.671 4.82853 595.671 7.32349 595.189 9.89894H594.706C587.301 10.7038 581.909 11.5086 578.529 12.3134C575.148 12.9573 573.056 14.5669 572.251 17.1424C571.607 19.5568 571.285 23.581 571.285 29.2147L573.217 141.971C573.217 146.961 573.378 150.904 573.7 153.802C574.022 156.699 574.907 158.791 576.356 160.079C577.804 161.367 580.138 162.333 583.358 162.977C586.577 163.459 591.164 163.942 597.12 164.425C597.603 166.84 597.603 169.335 597.12 171.91C595.832 171.91 593.418 171.83 589.877 171.669C586.496 171.669 582.714 171.669 578.529 171.669C574.505 171.669 570.722 171.669 567.181 171.669C563.8 171.508 561.466 171.427 560.179 171.427C558.891 171.427 556.557 171.508 553.177 171.669C549.796 171.669 546.094 171.669 542.07 171.669C538.046 171.669 534.344 171.669 530.964 171.669C527.583 171.83 525.249 171.91 523.962 171.91C523.801 169.496 523.801 167.001 523.962 164.425H524.444C531.527 163.62 536.678 162.896 539.897 162.252C543.116 161.447 545.048 159.838 545.692 157.423C546.497 154.848 546.899 150.743 546.899 145.109L544.726 15.6937L483.881 171.427C482.755 171.91 480.984 172.232 478.569 172.393C476.155 172.554 474.062 172.634 472.292 172.634L415.069 20.7641L411.206 145.109C411.045 150.421 411.286 154.284 411.93 156.699C412.574 158.952 414.505 160.562 417.725 161.528C420.944 162.494 426.336 163.459 433.902 164.425C434.546 167.001 434.546 169.496 433.902 171.91C432.292 171.91 429.475 171.83 425.451 171.669C421.588 171.669 417.644 171.669 413.62 171.669C409.757 171.508 406.94 171.427 405.169 171.427C404.204 171.427 402.272 171.508 399.375 171.669C396.638 171.669 393.58 171.669 390.2 171.669C386.819 171.669 383.681 171.669 380.783 171.669C378.047 171.83 376.196 171.91 375.23 171.91C374.908 169.335 374.908 166.84 375.23 164.425C382.795 163.459 388.188 162.494 391.407 161.528C394.626 160.562 396.638 158.63 397.443 155.733C398.409 152.836 398.972 148.248 399.133 141.971L403.721 29.2147C404.043 23.581 403.801 19.5568 402.996 17.1424C402.192 14.7279 400.019 13.1182 396.477 12.3134C393.097 11.3476 387.463 10.5428 379.576 9.89894C379.415 7.32349 379.415 4.82853 379.576 2.41406C385.049 2.41406 390.683 2.49455 396.477 2.65551C402.272 2.81647 408.711 2.89695 415.793 2.89695C418.208 2.89695 421.427 2.89695 425.451 2.89695C429.475 2.89695 433.177 2.81647 436.558 2.65551L486.537 134.969Z" fill="#EEC56C"></path><path d="M1712.2 293.695H1720.2V351.071H1749.75V358.695H1712.2V293.695Z" fill="#E7E4D5"></path><path d="M1652.6 293.695H1662.51L1684.81 358.695H1676.52L1670.8 341.349H1644.4L1638.59 358.695H1630.3L1652.6 293.695ZM1668.23 333.725L1657.74 301.32H1657.46L1646.88 333.725H1668.23Z" fill="#E7E4D5"></path><path d="M1553.91 293.695H1561.54L1595.66 345.257H1595.85C1595.72 343.414 1595.63 341.445 1595.56 339.348C1595.43 337.569 1595.34 335.536 1595.28 333.248C1595.28 330.897 1595.28 328.515 1595.28 326.1V293.695H1602.9V358.695H1595.28L1561.16 306.943H1560.97C1561.03 308.849 1561.12 310.851 1561.25 312.948C1561.31 314.79 1561.38 316.855 1561.44 319.143C1561.51 321.43 1561.54 323.781 1561.54 326.195V358.695H1553.91V293.695Z" fill="#E7E4D5"></path><path d="M1460.82 326.196C1460.82 320.032 1461.77 314.822 1463.68 310.565C1465.65 306.308 1468.13 302.877 1471.11 300.272C1474.16 297.667 1477.53 295.792 1481.21 294.649C1484.96 293.442 1488.62 292.838 1492.18 292.838C1495.73 292.838 1499.35 293.346 1503.04 294.363C1506.79 295.316 1510.16 297.063 1513.14 299.605C1516.19 302.083 1518.67 305.482 1520.58 309.803C1522.55 314.123 1523.53 319.619 1523.53 326.291C1523.53 332.518 1522.55 337.76 1520.58 342.017C1518.67 346.274 1516.19 349.737 1513.14 352.405C1510.16 355.074 1506.79 357.012 1503.04 358.219C1499.35 359.363 1495.73 359.935 1492.18 359.935C1488.62 359.935 1484.96 359.363 1481.21 358.219C1477.53 357.076 1474.16 355.201 1471.11 352.596C1468.13 349.991 1465.65 346.528 1463.68 342.208C1461.77 337.887 1460.82 332.55 1460.82 326.196ZM1514.48 326.672C1514.48 318.095 1512.48 311.582 1508.47 307.134C1504.53 302.686 1499.23 300.463 1492.56 300.463C1489.19 300.463 1486.11 301.003 1483.31 302.083C1480.58 303.099 1478.2 304.656 1476.16 306.753C1474.19 308.85 1472.64 311.487 1471.49 314.663C1470.41 317.777 1469.87 321.462 1469.87 325.719C1469.87 334.297 1471.84 340.873 1475.78 345.448C1479.78 350.023 1485.12 352.31 1491.79 352.31C1495.1 352.31 1498.15 351.802 1500.94 350.785C1503.74 349.705 1506.12 348.085 1508.09 345.925C1510.12 343.764 1511.68 341.096 1512.76 337.919C1513.91 334.742 1514.48 330.993 1514.48 326.672Z" fill="#E7E4D5"></path><path d="M1422.43 293.695H1430.44V358.695H1422.43V293.695Z" fill="#E7E4D5"></path><path d="M1366.88 301.129H1346.48V293.695H1395.28V301.129H1374.88V358.695H1366.88V301.129Z" fill="#E7E4D5"></path><path d="M1298.21 293.695H1308.12L1330.42 358.695H1322.13L1316.41 341.349H1290.01L1284.2 358.695H1275.91L1298.21 293.695ZM1313.84 333.725L1303.35 301.32H1303.07L1292.49 333.725H1313.84Z" fill="#E7E4D5"></path><path d="M1199.52 293.695H1207.15L1241.27 345.257H1241.46C1241.33 343.414 1241.24 341.445 1241.17 339.348C1241.05 337.569 1240.95 335.536 1240.89 333.248C1240.89 330.897 1240.89 328.515 1240.89 326.1V293.695H1248.51V358.695H1240.89L1206.77 306.943H1206.58C1206.64 308.849 1206.73 310.851 1206.86 312.948C1206.92 314.79 1206.99 316.855 1207.05 319.143C1207.12 321.43 1207.15 323.781 1207.15 326.195V358.695H1199.52V293.695Z" fill="#E7E4D5"></path><path d="M1127.17 293.695H1143.19C1146.68 293.695 1149.86 294.013 1152.72 294.648C1155.64 295.22 1158.12 296.237 1160.15 297.698C1162.18 299.096 1163.74 300.971 1164.82 303.321C1165.9 305.672 1166.44 308.627 1166.44 312.185C1166.38 316.125 1165.71 319.333 1164.44 321.811C1163.17 324.226 1161.61 326.195 1159.77 327.72C1157.93 329.182 1155.8 330.262 1153.38 330.961V331.151C1153.64 331.406 1154.02 331.882 1154.53 332.581C1155.1 333.216 1155.58 333.788 1155.96 334.297L1174.35 358.695H1164.92L1146.05 332.867H1135.18V358.695H1127.17V293.695ZM1158.34 313.519C1158.34 310.851 1157.99 308.69 1157.29 307.038C1156.66 305.323 1155.67 304.02 1154.34 303.131C1153.07 302.241 1151.48 301.638 1149.57 301.32C1147.67 301.002 1145.5 300.843 1143.09 300.843H1135.18V325.719H1144.62C1147.09 325.719 1149.19 325.401 1150.91 324.766C1152.62 324.13 1154.02 323.273 1155.1 322.192C1156.18 321.049 1156.97 319.746 1157.48 318.285C1157.99 316.823 1158.28 315.235 1158.34 313.519Z" fill="#E7E4D5"></path><path d="M1056.22 293.695H1096.06V301.034H1064.23V321.811H1093.77V328.959H1064.23V351.357H1097.01V358.695H1056.22V293.695Z" fill="#E7E4D5"></path><path d="M1000.67 301.129H980.271V293.695H1029.07V301.129H1008.67V358.695H1000.67V301.129Z" fill="#E7E4D5"></path><path d="M904.078 293.695H911.703L945.823 345.257H946.014C945.887 343.414 945.792 341.445 945.728 339.348C945.601 337.569 945.506 335.536 945.442 333.248C945.442 330.897 945.442 328.515 945.442 326.1V293.695H953.067V358.695H945.442L911.322 306.943H911.131C911.195 308.849 911.29 310.851 911.417 312.948C911.481 314.79 911.544 316.855 911.608 319.143C911.671 321.43 911.703 323.781 911.703 326.195V358.695H904.078V293.695Z" fill="#E7E4D5"></path><path d="M862.165 293.695H870.171V358.695H862.165V293.695Z" fill="#E7E4D5"></path><path d="M763.629 293.695H773.541L795.843 358.695H787.552L781.833 341.349H755.433L749.619 358.695H741.327L763.629 293.695ZM779.26 333.725L768.776 301.32H768.49L757.911 333.725H779.26Z" fill="#E7E4D5"></path><path d="M714.223 302.845C711.427 302.273 708.441 301.733 705.264 301.225C702.151 300.717 698.529 300.399 694.399 300.272C690.205 300.335 686.584 300.971 683.534 302.178C680.484 303.385 677.974 305.133 676.004 307.42C674.098 309.644 672.669 312.313 671.716 315.426C670.762 318.539 670.286 321.97 670.286 325.719C670.286 330.548 670.89 334.678 672.097 338.109C673.368 341.54 675.083 344.368 677.243 346.592C679.467 348.752 682.041 350.34 684.963 351.357C687.886 352.374 691.031 352.882 694.399 352.882C696.559 352.882 698.497 352.755 700.213 352.501C701.992 352.247 703.517 351.961 704.788 351.643C706.122 351.262 707.329 350.849 708.409 350.404V332.963H696.496V325.815H716.51V354.312C714.287 355.773 711.205 357.107 707.266 358.315C703.39 359.458 699.101 359.998 694.399 359.935C690.078 359.935 685.916 359.427 681.914 358.41C677.974 357.393 674.448 355.614 671.334 353.073C668.284 350.468 665.838 346.941 663.996 342.493C662.153 338.046 661.232 332.423 661.232 325.624C661.232 320.096 662.089 315.299 663.805 311.232C665.521 307.102 667.84 303.703 670.763 301.034C673.749 298.302 677.18 296.269 681.056 294.935C684.995 293.537 689.157 292.838 693.541 292.838C696.4 292.838 699.164 292.997 701.833 293.314C704.502 293.569 706.948 293.886 709.172 294.268C711.396 294.585 713.524 294.998 715.557 295.507L714.223 302.845Z" fill="#E7E4D5"></path><path d="M592.875 293.695H608.887C612.381 293.695 615.558 294.013 618.418 294.648C621.34 295.22 623.818 296.237 625.852 297.698C627.885 299.096 629.442 300.971 630.522 303.321C631.602 305.672 632.142 308.627 632.142 312.185C632.078 316.125 631.411 319.333 630.141 321.811C628.87 324.226 627.313 326.195 625.47 327.72C623.628 329.182 621.499 330.262 619.085 330.961V331.151C619.339 331.406 619.72 331.882 620.228 332.581C620.8 333.216 621.277 333.788 621.658 334.297L640.053 358.695H630.617L611.746 332.867H600.881V358.695H592.875V293.695ZM624.041 313.519C624.041 310.851 623.691 308.69 622.992 307.038C622.357 305.323 621.372 304.02 620.038 303.131C618.767 302.241 617.179 301.638 615.272 301.32C613.366 301.002 611.206 300.843 608.791 300.843H600.881V325.719H610.316C612.794 325.719 614.891 325.401 616.607 324.766C618.322 324.13 619.72 323.273 620.8 322.192C621.88 321.049 622.675 319.746 623.183 318.285C623.691 316.823 623.977 315.235 624.041 313.519Z" fill="#E7E4D5"></path><path d="M533.274 293.695H543.186L565.488 358.695H557.196L551.478 341.349H525.077L519.263 358.695H510.972L533.274 293.695ZM548.904 333.725L538.42 301.32H538.135L527.555 333.725H548.904Z" fill="#E7E4D5"></path><path d="M439.738 293.695H447.839L466.519 351.071H466.615L485.009 293.695H493.11L471.475 358.695H461.373L439.738 293.695Z" fill="#E7E4D5"></path><path d="M412.349 302.655C410.824 302.273 409.236 301.924 407.584 301.606C406.123 301.289 404.439 301.034 402.533 300.844C400.69 300.59 398.752 300.463 396.719 300.463C392.017 300.463 388.649 301.193 386.616 302.655C384.583 304.052 383.566 306.245 383.566 309.231C383.63 311.582 384.488 313.583 386.14 315.235C387.792 316.824 389.857 318.317 392.335 319.715C394.813 321.049 397.513 322.383 400.436 323.718C403.422 324.989 406.154 326.482 408.632 328.197C411.11 329.849 413.175 331.819 414.827 334.106C416.543 336.33 417.401 339.062 417.401 342.303C417.401 346.052 416.575 349.07 414.923 351.357C413.334 353.644 411.301 355.424 408.823 356.694C406.345 357.965 403.613 358.823 400.626 359.268C397.704 359.712 394.908 359.935 392.239 359.935C389.698 359.935 387.379 359.776 385.282 359.458C383.185 359.141 381.374 358.791 379.849 358.41C378.07 357.965 376.45 357.457 374.989 356.885L376.895 349.165C378.356 349.8 379.913 350.34 381.565 350.785C383.026 351.166 384.646 351.516 386.426 351.834C388.268 352.151 390.206 352.31 392.239 352.31C394.717 352.31 396.973 352.151 399.006 351.834C401.103 351.516 402.914 351.008 404.439 350.309C405.964 349.61 407.139 348.688 407.965 347.545C408.855 346.401 409.299 345.003 409.299 343.351C409.236 340.873 408.41 338.872 406.821 337.347C405.297 335.758 403.232 334.265 400.626 332.867C398.085 331.406 395.321 330.008 392.335 328.674C389.412 327.339 386.711 325.815 384.233 324.099C381.755 322.383 379.659 320.35 377.943 317.999C376.291 315.648 375.465 312.726 375.465 309.231C375.465 307.198 375.815 305.196 376.513 303.226C377.212 301.257 378.388 299.509 380.04 297.985C381.755 296.46 383.947 295.221 386.616 294.268C389.348 293.314 392.716 292.838 396.719 292.838C399.006 292.838 401.167 292.965 403.2 293.219C405.297 293.41 407.107 293.632 408.632 293.886C410.411 294.204 412.095 294.553 413.684 294.935L412.349 302.655Z" fill="#E7E4D5"></path></svg> 