<?xml version="1.0" encoding="UTF-8"?>
<svg xmlns="http://www.w3.org/2000/svg" viewBox="0 0 300 350" fill="none">
  <path d="M132.701 49.4568C141.206 57.8796 149.249 66.877 156.421 76.5002C175.77 51.8061 200.484 22.5468 234.34 20.0435C329.956 12.9749 339.815 151.895 254.776 166.669C210.323 174.394 178.929 137.984 157.005 104.857L154.892 104.221C138.416 127.396 117.415 158.164 88.0016 165.068C0.202912 185.689 -33.6219 59.4288 41.3323 26.0657C76.5318 10.3998 107.433 24.4139 132.701 49.4568ZM193.467 57.6642C189.384 61.7063 165.48 88.0008 165.469 91.3864C188.327 122.082 213.657 162.883 258.5 149.874C311.951 134.373 309.981 52.1344 257.249 37.238C231.6 29.995 211.256 40.0388 193.477 57.6642H193.467ZM113.198 132.311C118.636 127.068 123.776 121.343 128.628 115.414C131.121 112.367 146.715 92.0122 146.654 90.3399C124.545 60.2803 96.2296 24.8551 53.787 37.4945C7.86658 51.1701 0.695356 119.528 41.7119 144.027C68.5398 160.052 92.2182 152.532 113.198 132.311Z" fill="#EEC56C"/>
  <path d="M69.3604 76.8809C70.2119 77.7222 74.0694 84.3086 74.8491 83.6931C79.6709 68.058 102.272 66.95 108.448 82.4312C117.384 104.817 87.9912 121.416 74.2027 133.881C63.6767 125.038 39.4239 108.88 37.9363 94.4755C36.0178 75.9063 55.613 63.2771 69.3706 76.8809H69.3604Z" fill="#EEC56C"/>
  <path d="M197.54 85.324C229.508 54.536 263.866 63.5026 288.139 97.4094C269.775 121.724 242.116 137.698 212.385 121.088C207.019 118.092 190.481 103.226 188.204 98.025C186.696 94.5779 194.965 87.817 197.54 85.3343V85.324ZM210.713 107.884C234.391 126.556 257.515 118.913 274.833 96.6605C267.446 88.4326 256.377 79.2198 245.389 76.7986C226.707 72.6846 211.718 84.4417 200.043 97.5428C203.613 100.877 206.906 104.878 210.713 107.884Z" fill="#EEC56C"/>
  <path d="M237.592 112.335C246.091 112.335 252.981 105.446 252.981 96.9465C252.981 88.4475 246.091 81.5576 237.592 81.5576C229.093 81.5576 222.203 88.4475 222.203 96.9465C222.203 105.446 229.093 112.335 237.592 112.335Z" fill="#EEC56C"/>
  <path d="M271.796 234.382C264.666 234.382 248.6 243.913 243.542 249.217C240.413 252.5 238.977 257.157 235.386 260.03C238.782 252.52 242.157 245.103 243.48 236.844C245.953 221.373 242.547 205.399 246.661 190.277C230.39 190.698 213.041 195.202 201.5 207.174L194.349 217.967C193.477 190.657 174.138 171.02 156.892 152.328C138.918 170.251 121.323 190.636 118.41 216.941L108.171 204.117C96.4756 194.555 81.0354 190.595 66.0979 190.287C70.7043 200.136 67.9343 209.534 68.1087 219.567C68.3139 231.858 71.1968 244.425 75.321 255.936C67.1444 245.441 53.4688 235.921 39.9368 234.392C34.6225 233.797 28.4362 234.823 23.009 234.392C35.5458 247.267 36.7975 264.944 45.405 280.22C58.3419 303.19 79.1477 312.229 105.083 312.373C104.621 314.168 100.969 313.265 98.9173 313.891C89.0068 316.917 80.6455 326.828 78.4193 336.984C96.4961 333.496 110.756 343.94 129.141 338.985C139.811 336.102 150.162 328.931 155.887 319.544C157.19 319.533 163.489 327.546 165.613 329.311C170.558 333.425 180.601 338.595 186.901 339.826C202.926 342.945 219.33 333.466 235.386 338.01C233.006 327.443 226.204 319 216.468 314.363L206.67 312.373C226.532 312.075 246.681 308.105 259.988 292.326C270.585 279.758 275.756 263.898 280.814 248.519L289.77 234.392H271.817L271.796 234.382ZM160.986 196.761C162.022 196.823 168.075 201.891 168.742 203.04C173.184 210.673 160.329 220.285 153.281 212.355C147.987 206.405 155.713 199.582 160.996 196.761H160.986ZM151.301 218.439C157.97 220.521 163.489 220.603 170.014 217.762C172.948 216.479 176.046 212.376 178.242 212.94L184.869 223.661C170.609 234.618 141.739 235.202 139.954 212.847C144.037 214.325 146.91 217.064 151.281 218.439H151.301ZM183.474 302.011C169.86 303.662 158.39 288.222 165.12 276.455C166.813 275.624 167.839 279.994 169.06 281.215C185.7 297.948 202.669 269.653 192.728 252.92C188.994 246.631 181.217 243.871 176.426 250.827C174.23 254.018 173.625 259.199 171.625 262.441C167.613 268.914 159.355 270.31 152.286 270.299L157.221 276.127C169.696 312.526 123.745 318.374 107.72 290.746C104.734 285.586 100.477 270.689 102.775 265.406C103.401 263.959 103.011 263.857 105.073 264.134C106.458 282.385 122.134 299.333 141.237 291.567C150.542 287.781 151.814 275.839 142.417 271.428C138.99 269.817 132.055 269.673 130.7 268.791C129.469 267.991 125.909 258.183 129.356 257.106C133.491 255.803 143.35 257.824 144.027 250.201C145.31 235.828 124.894 241.635 118.943 248.714C115.076 245.308 111.505 241.635 111.351 236.085C134.712 213.596 170.065 238.557 144.079 264.123C164.751 267.191 156.851 239.121 175.605 235.644C212.21 228.872 217.422 297.897 183.474 302.011Z" fill="#EEC56C"/>
</svg>
